<svg id="b3a1fa03-3fe4-4b0a-ba80-b9089214f814" data-name="레이어 1" xmlns="http://www.w3.org/2000/svg" viewBox="0 0 16 16">
  <defs>
    <style>
      .f1b6700f-2974-46cb-9c81-deccc1bcb720 {
        fill: #9d9d9d;
      }
    </style>
  </defs>
  <path class="f1b6700f-2974-46cb-9c81-deccc1bcb720" d="M6,20a2,2,0,1,1,1.41-3.41A2,2,0,0,1,6,20Zm6,0a2,2,0,1,1,1.41-.59A1.93,1.93,0,0,1,12,20Zm6,0a2,2,0,1,1,1.41-.59A1.93,1.93,0,0,1,18,20ZM6,14a2,2,0,0,1-1.41-3.41,2,2,0,0,1,2.82,0A2,2,0,0,1,6,14Zm6,0a2,2,0,0,1-1.41-3.41,2,2,0,1,1,2.82,2.82A1.93,1.93,0,0,1,12,14Zm6,0a2,2,0,0,1-1.41-3.41,2,2,0,1,1,2.82,2.82A1.93,1.93,0,0,1,18,14ZM6,8A2,2,0,0,1,4,6,2,2,0,0,1,6,4,2,2,0,0,1,8,6,2,2,0,0,1,6,8Zm6,0a2,2,0,0,1-2-2,2,2,0,0,1,3.41-1.41,2,2,0,0,1,0,2.82A1.93,1.93,0,0,1,12,8Zm6,0a2,2,0,0,1-2-2,2,2,0,1,1,3.41,1.41A1.93,1.93,0,0,1,18,8Z" transform="translate(-4 -4)"/>
</svg>
