<svg id="a13f326e-269c-430b-86e0-4eec8fb5ab16" data-name="레이어 1" xmlns="http://www.w3.org/2000/svg" viewBox="0 0 20.1 20">
  <defs>
    <style>
      .b66af150-81f7-4fb3-b5fd-447270fa82a7 {
        fill: #9d9d9d;
      }
    </style>
  </defs>
  <path class="b66af150-81f7-4fb3-b5fd-447270fa82a7" d="M9.25,22l-.4-3.2a3.14,3.14,0,0,1-.61-.3c-.19-.12-.38-.24-.56-.37l-3,1.25L2,14.63l2.58-2a2,2,0,0,1,0-.34v-.68a1.84,1.84,0,0,1,0-.33L2,9.38,4.7,4.63l3,1.25a5.65,5.65,0,0,1,.57-.38,4.2,4.2,0,0,1,.6-.3L9.25,2h5.5l.4,3.2a3.14,3.14,0,0,1,.61.3c.19.12.38.24.57.38l3-1.25,2.75,4.75-1.85,1.4a8.32,8.32,0,0,0-1.12-.47,6.88,6.88,0,0,0-1.23-.26l1.58-1.2-1-1.7L16,8.2a5.86,5.86,0,0,0-1.22-1,5.46,5.46,0,0,0-1.43-.59L13,4H11l-.35,2.65a5.39,5.39,0,0,0-1.44.59A5.78,5.78,0,0,0,8,8.18l-2.48-1-1,1.7,2.15,1.6a3.41,3.41,0,0,0-.18.75,6.73,6.73,0,0,0,0,.8,6.53,6.53,0,0,0,0,.78,3.41,3.41,0,0,0,.18.75L4.58,15.15l1,1.7L8,15.8a6,6,0,0,0,.91.76,4.9,4.9,0,0,0,1.06.57,6.67,6.67,0,0,0,.59,2.67A7.31,7.31,0,0,0,12.1,22Zm1-7a7.45,7.45,0,0,1,.36-1,5.81,5.81,0,0,1,.49-.88,1.35,1.35,0,0,1-.43-.52,1.52,1.52,0,0,1-.15-.66,1.5,1.5,0,0,1,1.5-1.5,1.51,1.51,0,0,1,.68.16,1.49,1.49,0,0,1,.52.44,7.58,7.58,0,0,1,.88-.49,4.84,4.84,0,0,1,.95-.33A3.44,3.44,0,0,0,13.83,9a3.51,3.51,0,0,0-4.27.54,3.39,3.39,0,0,0-1,2.47A3.48,3.48,0,0,0,9,13.76,3.3,3.3,0,0,0,10.28,15ZM17,20l3-3-3-3-.7.7,1.8,1.8H14v1h4.08L16.3,19.3Zm0,2a5,5,0,0,1-5-5,5,5,0,0,1,5-5,5,5,0,0,1,5,5,5,5,0,0,1-5,5Z" transform="translate(-1.95 -2)"/>
</svg>
