<svg id="bf0f46fb-f099-4feb-8de6-b43cc745014d" data-name="레이어 1" xmlns="http://www.w3.org/2000/svg" viewBox="0 0 16 16">
  <defs>
    <style>
      .b4b35062-13fa-4075-9ca7-57e2fd02c0ad {
        fill: #635954;
      }
    </style>
  </defs>
  <path class="b4b35062-13fa-4075-9ca7-57e2fd02c0ad" d="M6,20a2,2,0,1,1,1.41-3.41A2,2,0,0,1,6,20Zm6,0a2,2,0,1,1,1.41-.59A1.93,1.93,0,0,1,12,20Zm6,0a2,2,0,1,1,1.41-.59A1.93,1.93,0,0,1,18,20ZM6,14a2,2,0,0,1-1.41-3.41,2,2,0,0,1,2.82,0A2,2,0,0,1,6,14Zm6,0a2,2,0,0,1-1.41-3.41,2,2,0,1,1,2.82,2.82A1.93,1.93,0,0,1,12,14Zm6,0a2,2,0,0,1-1.41-3.41,2,2,0,1,1,2.82,2.82A1.93,1.93,0,0,1,18,14ZM6,8A2,2,0,0,1,4,6,2,2,0,0,1,6,4,2,2,0,0,1,8,6,2,2,0,0,1,6,8Zm6,0a2,2,0,0,1-2-2,2,2,0,0,1,3.41-1.41,2,2,0,0,1,0,2.82A1.93,1.93,0,0,1,12,8Zm6,0a2,2,0,0,1-2-2,2,2,0,1,1,3.41,1.41A1.93,1.93,0,0,1,18,8Z" transform="translate(-4 -4)"/>
</svg>
