<svg id="f1568120-5c7a-483c-ae44-c92025a802f0" data-name="레이어 1" xmlns="http://www.w3.org/2000/svg" viewBox="0 0 18 18">
  <defs>
    <style>
      .ac0c07d7-2945-414f-9616-027658de182c {
        fill: #9d9d9d;
      }
    </style>
  </defs>
  <path class="ac0c07d7-2945-414f-9616-027658de182c" d="M3,21V7H7V3H17v8h4V21H13V17H11v4Zm2-2H7V17H5Zm0-4H7V13H5Zm0-4H7V9H5Zm4,4h2V13H9Zm0-4h2V9H9ZM9,7h2V5H9Zm4,8h2V13H13Zm0-4h2V9H13Zm0-4h2V5H13Zm4,12h2V17H17Zm0-4h2V13H17Z" transform="translate(-3 -3)"/>
</svg>
