<svg id="b44d8383-6514-4aba-9c78-4702d813be99" data-name="레이어 1" xmlns="http://www.w3.org/2000/svg" viewBox="0 0 20 18">
  <defs>
    <style>
      .e620f52f-0991-4896-a6e8-b5b3f31c8ac6 {
        fill: #9d9d9d;
      }
    </style>
  </defs>
  <path class="e620f52f-0991-4896-a6e8-b5b3f31c8ac6" d="M7,14a1,1,0,1,0-.71-.29A1,1,0,0,0,7,14Zm0-4a1,1,0,1,0-.71-.29A1,1,0,0,0,7,10Zm2,4h9V12H9Zm0-4h9V8H9ZM8,21V19H4a1.93,1.93,0,0,1-1.41-.59A1.93,1.93,0,0,1,2,17V5a1.93,1.93,0,0,1,.59-1.41A1.93,1.93,0,0,1,4,3H20a1.93,1.93,0,0,1,1.41.59A1.93,1.93,0,0,1,22,5V17a2,2,0,0,1-2,2H16v2ZM4,17H20V5H4Zm0,0v0Z" transform="translate(-2 -3)"/>
</svg>
