<svg id="e260f2db-fea0-46df-ae2b-378fae4afced" data-name="레이어 1" xmlns="http://www.w3.org/2000/svg" viewBox="0 0 19.5 17.03">
  <defs>
    <style>
      .e480697e-6978-4a45-aa46-331d51c118cb {
        fill: #9d9d9d;
      }
    </style>
  </defs>
  <path class="e480697e-6978-4a45-aa46-331d51c118cb" d="M17,21a1.83,1.83,0,0,1-.4-.05,1.27,1.27,0,0,1-.37-.18l-3-1.75a1.28,1.28,0,0,1-.54-.54,1.42,1.42,0,0,1-.19-.73V14.25a1.46,1.46,0,0,1,.19-.74,1.31,1.31,0,0,1,.54-.53l3-1.75a.91.91,0,0,1,.37-.18A1.83,1.83,0,0,1,17,11a1.32,1.32,0,0,1,.39.06,2,2,0,0,1,.36.17l3,1.75a1.43,1.43,0,0,1,.75,1.27v3.53a1.47,1.47,0,0,1-.75,1.27l-3,1.75a1.89,1.89,0,0,1-.36.16A1.34,1.34,0,0,1,17,21Zm-7-9a3.84,3.84,0,0,1-2.82-1.17A3.85,3.85,0,0,1,6,8,3.81,3.81,0,0,1,7.18,5.18,3.81,3.81,0,0,1,10,4a3.85,3.85,0,0,1,2.83,1.18A3.84,3.84,0,0,1,14,8a4,4,0,0,1-4,4ZM2,20V17.2a3,3,0,0,1,.43-1.55,2.76,2.76,0,0,1,1.17-1.1,15.86,15.86,0,0,1,2.88-1.1A12.94,12.94,0,0,1,10,13h.35a1,1,0,0,1,.3.05,7,7,0,0,0-.34.94,7.84,7.84,0,0,0-.21,1H10a10.51,10.51,0,0,0-3.19.45,16.47,16.47,0,0,0-2.31.9.93.93,0,0,0-.36.35,1,1,0,0,0-.14.5V18h6.3a6,6,0,0,0,.4,1,8.89,8.89,0,0,0,.55,1Zm8-10a2,2,0,0,0,2-2A2,2,0,0,0,8.59,6.59a2,2,0,0,0,0,2.82A1.93,1.93,0,0,0,10,10Zm4.65,3.85L17,15.23l2.35-1.38L17,12.5Zm3.1,5.2L20,17.75V15l-2.25,1.33ZM14,17.75l2.25,1.33V16.35L14,15Z" transform="translate(-2 -4)"/>
</svg>
