<svg id="b9c76c32-d37e-4c7a-8f62-0186238feafc" data-name="레이어 1" xmlns="http://www.w3.org/2000/svg" viewBox="0 0 20 18">
  <defs>
    <style>
      .ea51b2fb-1cf8-46da-807c-c4eec73966da {
        fill: #635954;
      }
    </style>
  </defs>
  <path class="ea51b2fb-1cf8-46da-807c-c4eec73966da" d="M7,14a1,1,0,1,0-.71-.29A1,1,0,0,0,7,14Zm0-4a1,1,0,1,0-.71-.29A1,1,0,0,0,7,10Zm2,4h9V12H9Zm0-4h9V8H9ZM8,21V19H4a1.93,1.93,0,0,1-1.41-.59A1.93,1.93,0,0,1,2,17V5a1.93,1.93,0,0,1,.59-1.41A1.93,1.93,0,0,1,4,3H20a1.93,1.93,0,0,1,1.41.59A1.93,1.93,0,0,1,22,5V17a2,2,0,0,1-2,2H16v2ZM4,17H20V5H4Zm0,0v0Z" transform="translate(-2 -3)"/>
</svg>
