<svg width="24" height="24" viewBox="0 0 24 24" fill="none" xmlns="http://www.w3.org/2000/svg">
<path d="M21.25 19.5H1.75C1.55109 19.5 1.36032 19.579 1.21967 19.7197C1.07902 19.8603 1 20.0511 1 20.25L1 21.75C1 21.9489 1.07902 22.1397 1.21967 22.2803C1.36032 22.421 1.55109 22.5 1.75 22.5H21.25C21.4489 22.5 21.6397 22.421 21.7803 22.2803C21.921 22.1397 22 21.9489 22 21.75V20.25C22 20.0511 21.921 19.8603 21.7803 19.7197C21.6397 19.579 21.4489 19.5 21.25 19.5ZM21.25 13.5H1.75C1.55109 13.5 1.36032 13.579 1.21967 13.7197C1.07902 13.8603 1 14.0511 1 14.25L1 15.75C1 15.9489 1.07902 16.1397 1.21967 16.2803C1.36032 16.421 1.55109 16.5 1.75 16.5H21.25C21.4489 16.5 21.6397 16.421 21.7803 16.2803C21.921 16.1397 22 15.9489 22 15.75V14.25C22 14.0511 21.921 13.8603 21.7803 13.7197C21.6397 13.579 21.4489 13.5 21.25 13.5ZM21.25 7.5H1.75C1.55109 7.5 1.36032 7.57902 1.21967 7.71967C1.07902 7.86032 1 8.05109 1 8.25L1 9.75C1 9.94891 1.07902 10.1397 1.21967 10.2803C1.36032 10.421 1.55109 10.5 1.75 10.5H21.25C21.4489 10.5 21.6397 10.421 21.7803 10.2803C21.921 10.1397 22 9.94891 22 9.75V8.25C22 8.05109 21.921 7.86032 21.7803 7.71967C21.6397 7.57902 21.4489 7.5 21.25 7.5ZM21.25 1.5H1.75C1.55109 1.5 1.36032 1.57902 1.21967 1.71967C1.07902 1.86032 1 2.05109 1 2.25L1 3.75C1 3.94891 1.07902 4.13968 1.21967 4.28033C1.36032 4.42098 1.55109 4.5 1.75 4.5H21.25C21.4489 4.5 21.6397 4.42098 21.7803 4.28033C21.921 4.13968 22 3.94891 22 3.75V2.25C22 2.05109 21.921 1.86032 21.7803 1.71967C21.6397 1.57902 21.4489 1.5 21.25 1.5Z" fill="white"/>
</svg>
