<svg width="40" height="40" viewBox="0 0 40 40" fill="none" xmlns="http://www.w3.org/2000/svg">
<path d="M20 40C31.0457 40 40 31.0457 40 20C40 8.9543 31.0457 0 20 0C8.9543 0 0 8.9543 0 20C0 31.0457 8.9543 40 20 40Z" fill="white" fill-opacity="0.4"/>
<mask id="mask0_830_7340" style="mask-type:luminance" maskUnits="userSpaceOnUse" x="10" y="10" width="20" height="20">
<path d="M30 10H10V30H30V10Z" fill="white"/>
</mask>
<g mask="url(#mask0_830_7340)">
<path d="M19.999 11.8C22.669 11.8 22.985 11.81 24.04 11.858C24.6747 11.8645 25.3036 11.9802 25.899 12.2C26.3334 12.3603 26.7264 12.6159 27.049 12.948C27.3821 13.271 27.6384 13.6647 27.799 14.1C28.0192 14.6947 28.1356 15.3229 28.143 15.957C28.188 17.014 28.199 17.33 28.199 20C28.199 22.67 28.189 22.986 28.141 24.041C28.1345 24.6757 28.0188 25.3045 27.799 25.9C27.6327 26.3319 27.3776 26.7241 27.0504 27.0513C26.7231 27.3786 26.3309 27.6336 25.899 27.8C25.3043 28.0203 24.6762 28.1367 24.042 28.144C22.988 28.192 22.671 28.202 20.001 28.202C17.331 28.202 17.014 28.192 15.96 28.144C15.3245 28.1371 14.695 28.0207 14.099 27.8C13.6646 27.6397 13.2717 27.3841 12.949 27.052C12.6169 26.7293 12.3613 26.3364 12.201 25.902C11.9808 25.3073 11.8644 24.6791 11.857 24.045C11.812 22.986 11.799 22.67 11.799 20C11.799 17.33 11.809 17.014 11.857 15.959C11.8652 15.324 11.9826 14.6952 12.204 14.1C12.3643 13.6656 12.6199 13.2727 12.952 12.95C13.2736 12.6176 13.6655 12.3613 14.099 12.2C14.6949 11.9807 15.3241 11.8657 15.959 11.86C17.014 11.812 17.33 11.8 19.999 11.8ZM19.999 10C17.284 10 16.943 10.012 15.877 10.06C15.0476 10.0768 14.2269 10.234 13.45 10.525C12.7825 10.7758 12.1778 11.1693 11.678 11.678C11.1693 12.1777 10.7758 12.7825 10.525 13.45C10.2339 14.2269 10.0767 15.0475 10.06 15.877C10.011 16.944 9.99902 17.284 9.99902 20C9.99902 22.716 10.01 23.056 10.059 24.123C10.076 24.9525 10.2336 25.7732 10.525 26.55C10.776 27.2172 11.1695 27.8216 11.678 28.321C12.1775 28.8296 12.7819 29.2231 13.449 29.474C14.2259 29.765 15.0466 29.9222 15.876 29.939C16.943 29.988 17.284 30 19.999 30C22.714 30 23.055 29.988 24.122 29.94C24.9515 29.9232 25.7721 29.766 26.549 29.475C27.2134 29.2181 27.8168 28.8252 28.3205 28.3215C28.8242 27.8178 29.2171 27.2144 29.474 26.55C29.7652 25.7731 29.9225 24.9525 29.939 24.123C29.988 23.056 29.999 22.716 29.999 20C29.999 17.284 29.988 16.944 29.939 15.877C29.9225 15.0475 29.7652 14.2269 29.474 13.45C29.2231 12.7828 28.8296 12.1784 28.321 11.679C27.8217 11.1701 27.2173 10.7762 26.55 10.525C25.7731 10.234 24.9525 10.0768 24.123 10.06C23.056 10.012 22.716 10 19.999 10Z" fill="#635954"/>
<path d="M20.0002 14.8633C18.9846 14.8633 17.9918 15.1644 17.1474 15.7287C16.3029 16.2929 15.6448 17.0949 15.2561 18.0332C14.8675 18.9715 14.7658 20.004 14.9639 21.0001C15.162 21.9962 15.6511 22.9111 16.3692 23.6293C17.0874 24.3474 18.0024 24.8365 18.9984 25.0346C19.9945 25.2327 21.027 25.1311 21.9653 24.7424C22.9036 24.3537 23.7056 23.6956 24.2698 22.8511C24.8341 22.0067 25.1352 21.0139 25.1352 19.9983C25.1352 18.6364 24.5942 17.3303 23.6312 16.3673C22.6682 15.4043 21.3621 14.8633 20.0002 14.8633ZM20.0002 23.3313C19.341 23.3313 18.6966 23.1358 18.1485 22.7696C17.6004 22.4033 17.1732 21.8828 16.9209 21.2738C16.6687 20.6647 16.6027 19.9946 16.7313 19.348C16.8599 18.7015 17.1773 18.1076 17.6435 17.6415C18.1096 17.1754 18.7035 16.8579 19.35 16.7293C19.9965 16.6007 20.6667 16.6667 21.2757 16.919C21.8847 17.1713 22.4053 17.5985 22.7715 18.1466C23.1378 18.6947 23.3332 19.3391 23.3332 19.9983C23.3332 20.8822 22.9821 21.73 22.357 22.3551C21.732 22.9801 20.8842 23.3313 20.0002 23.3313Z" fill="#635954"/>
<path d="M26.5377 14.6648C26.5377 14.9022 26.4673 15.1342 26.3355 15.3315C26.2036 15.5289 26.0162 15.6827 25.7969 15.7735C25.5776 15.8643 25.3364 15.8881 25.1036 15.8418C24.8708 15.7955 24.657 15.6812 24.4892 15.5134C24.3213 15.3455 24.2071 15.1317 24.1608 14.899C24.1145 14.6662 24.1382 14.4249 24.229 14.2056C24.3199 13.9864 24.4737 13.7989 24.671 13.6671C24.8683 13.5352 25.1004 13.4648 25.3377 13.4648C25.656 13.4648 25.9612 13.5913 26.1862 13.8163C26.4113 14.0414 26.5377 14.3466 26.5377 14.6648Z" fill="#6980A5"/>
</g>
</svg>
