<svg width="40" height="40" viewBox="0 0 40 40" fill="none" xmlns="http://www.w3.org/2000/svg">
<path d="M20 40C31.0457 40 40 31.0457 40 20C40 8.9543 31.0457 0 20 0C8.9543 0 0 8.9543 0 20C0 31.0457 8.9543 40 20 40Z" fill="white" fill-opacity="0.4"/>
<path d="M20.4275 28.001C20.3555 28.001 13.2586 27.9959 11.4976 27.5239C11.013 27.3939 10.571 27.1389 10.2161 26.7842C9.8612 26.4295 9.60591 25.9875 9.47561 25.5029C9.14746 23.6882 8.98773 21.847 8.99856 20.0029C8.98784 18.1588 9.14757 16.3177 9.47561 14.5029C9.60582 14.0183 9.86119 13.5764 10.2161 13.2217C10.571 12.867 11.0129 12.6119 11.4976 12.4819C13.2586 12.0089 20.3555 12.0039 20.4275 12.0039C20.4995 12.0039 27.5957 12.0089 29.3577 12.4819C29.8421 12.6121 30.2838 12.8675 30.6385 13.2222C30.9932 13.5769 31.2485 14.0185 31.3787 14.5029C31.7074 16.3176 31.8672 18.1588 31.8565 20.0029C31.8673 21.8471 31.7075 23.6883 31.3787 25.5029C31.2484 25.9873 30.9929 26.429 30.6382 26.7837C30.2835 27.1384 29.8421 27.3936 29.3577 27.5239C27.5957 27.9959 20.4995 28.001 20.4275 28.001ZM18.1416 16.5728V23.4302L24.0796 20.002L18.1416 16.5728Z" fill="#635954"/>
</svg>
