<svg width="24" height="25" viewBox="0 0 24 25" fill="none" xmlns="http://www.w3.org/2000/svg">
<path d="M3 11.0469H11V3.04688H3V11.0469ZM5 5.04688H9V9.04688H5V5.04688Z" fill="#727272"/>
<path d="M3 21.0469H11V13.0469H3V21.0469ZM5 15.0469H9V19.0469H5V15.0469Z" fill="#727272"/>
<path d="M13 3.04688V11.0469H21V3.04688H13ZM19 9.04688H15V5.04688H19V9.04688Z" fill="#727272"/>
<path d="M21 19.0469H19V21.0469H21V19.0469Z" fill="#727272"/>
<path d="M15 13.0469H13V15.0469H15V13.0469Z" fill="#727272"/>
<path d="M17 15.0469H15V17.0469H17V15.0469Z" fill="#727272"/>
<path d="M15 17.0469H13V19.0469H15V17.0469Z" fill="#727272"/>
<path d="M17 19.0469H15V21.0469H17V19.0469Z" fill="#727272"/>
<path d="M19 17.0469H17V19.0469H19V17.0469Z" fill="#727272"/>
<path d="M19 13.0469H17V15.0469H19V13.0469Z" fill="#727272"/>
<path d="M21 15.0469H19V17.0469H21V15.0469Z" fill="#727272"/>
</svg>
