<svg width="24" height="25" viewBox="0 0 24 25" fill="none" xmlns="http://www.w3.org/2000/svg">
<path d="M6.5 12.0469C6.77614 12.0469 7 11.823 7 11.5469C7 11.2707 6.77614 11.0469 6.5 11.0469C6.22386 11.0469 6 11.2707 6 11.5469C6 11.823 6.22386 12.0469 6.5 12.0469Z" fill="#727272"/>
<path d="M9 5.04688C7.89543 5.04688 7 5.94231 7 7.04688V9.04688H6C4.89543 9.04688 4 9.94231 4 11.0469V14.0469C4 15.1514 4.89543 16.0469 6 16.0469H7V17.0469C7 18.1514 7.89543 19.0469 9 19.0469H15C16.1046 19.0469 17 18.1514 17 17.0469V16.0469H18C19.1046 16.0469 20 15.1514 20 14.0469V11.0469C20 9.94231 19.1046 9.04688 18 9.04688H17V7.04688C17 5.94231 16.1046 5.04688 15 5.04688H9ZM8 7.04688C8 6.49459 8.44772 6.04688 9 6.04688H15C15.5523 6.04688 16 6.49459 16 7.04688V9.04688H8V7.04688ZM9 12.0469C7.89543 12.0469 7 12.9423 7 14.0469V15.0469H6C5.44772 15.0469 5 14.5992 5 14.0469V11.0469C5 10.4946 5.44772 10.0469 6 10.0469H18C18.5523 10.0469 19 10.4946 19 11.0469V14.0469C19 14.5992 18.5523 15.0469 18 15.0469H17V14.0469C17 12.9423 16.1046 12.0469 15 12.0469H9ZM16 14.0469V17.0469C16 17.5992 15.5523 18.0469 15 18.0469H9C8.44772 18.0469 8 17.5992 8 17.0469V14.0469C8 13.4946 8.44772 13.0469 9 13.0469H15C15.5523 13.0469 16 13.4946 16 14.0469Z" fill="#727272"/>
</svg>
