<svg width="22" height="26" viewBox="0 0 22 26" fill="none" xmlns="http://www.w3.org/2000/svg">
<g clip-path="url(#clip0_930_18474)">
<path d="M21.8555 25.4054H3.12988V0.691406H16.4427V6.23632H21.8555V25.4054Z" fill="#FCFCFC" stroke="#818181" stroke-width="0.628366" stroke-miterlimit="10"/>
<path d="M11.6313 6.89844H1.08366C0.48517 6.89844 0 7.37868 0 7.97109V18.4116C0 19.004 0.48517 19.4842 1.08366 19.4842H11.6313C12.2298 19.4842 12.7149 19.004 12.7149 18.4116V7.97109C12.7149 7.37868 12.2298 6.89844 11.6313 6.89844Z" fill="#107C42"/>
<path d="M10.1113 17.8906H8.28605L2.8833 8.90625H4.74506L10.1113 17.8906Z" fill="white"/>
<path d="M2.8833 17.8906H4.70856L10.1113 8.90625H8.24955L2.8833 17.8906Z" fill="white"/>
<path d="M16.4425 10.1172H13.3794V11.4616H16.4425V10.1172Z" fill="#21A365"/>
<path d="M20.2282 10.1172H17.165V11.4616H20.2282V10.1172Z" fill="#33C481"/>
<path d="M16.4425 12.1445H13.3794V13.4889H16.4425V12.1445Z" fill="#107C42"/>
<path d="M20.2282 12.1445H17.165V13.4889H20.2282V12.1445Z" fill="#21A365"/>
<path d="M16.4425 14.1758H13.3794V15.5202H16.4425V14.1758Z" fill="#195D38"/>
<path d="M20.2282 14.1758H17.165V15.5202H20.2282V14.1758Z" fill="#104B2B"/>
<path d="M21.7476 6.25198H16.516C16.4755 6.25198 16.4429 6.21965 16.4429 6.17961V0.790021C16.4429 0.701348 16.5521 0.657869 16.6139 0.721943L21.8181 6.08779C21.8779 6.14957 21.8337 6.25226 21.7473 6.25226L21.7476 6.25198Z" fill="#FCFCFC" stroke="#818181" stroke-width="0.628366" stroke-miterlimit="10"/>
</g>
<defs>
<clipPath id="clip0_930_18474">
<rect width="22" height="25" fill="white" transform="translate(0 0.546875)"/>
</clipPath>
</defs>
</svg>
