<svg width="24" height="25" viewBox="0 0 24 25" fill="none" xmlns="http://www.w3.org/2000/svg">
<path d="M4.5 13.9469C4.77614 13.9469 5 14.1708 5 14.4469V16.9469C5 17.4992 5.44772 17.9469 6 17.9469H18C18.5523 17.9469 19 17.4992 19 16.9469V14.4469C19 14.1708 19.2239 13.9469 19.5 13.9469C19.7761 13.9469 20 14.1708 20 14.4469V16.9469C20 18.0515 19.1046 18.9469 18 18.9469H6C4.89543 18.9469 4 18.0515 4 16.9469V14.4469C4 14.1708 4.22386 13.9469 4.5 13.9469Z" fill="#727272"/>
<path d="M11.6464 15.9004C11.8417 16.0957 12.1583 16.0957 12.3536 15.9004L15.3536 12.9004C15.5488 12.7052 15.5488 12.3886 15.3536 12.1933C15.1583 11.9981 14.8417 11.9981 14.6464 12.1933L12.5 14.3398V5.54688C12.5 5.27073 12.2761 5.04688 12 5.04688C11.7239 5.04688 11.5 5.27073 11.5 5.54688V14.3398L9.35355 12.1933C9.15829 11.9981 8.84171 11.9981 8.64645 12.1933C8.45118 12.3886 8.45118 12.7052 8.64645 12.9004L11.6464 15.9004Z" fill="#727272"/>
</svg>
