<svg width="101" height="101" viewBox="0 0 101 101" fill="none" xmlns="http://www.w3.org/2000/svg">
<g clip-path="url(#clip0_1535_21689)">
<path d="M100.5 50.4973C100.5 78.1133 78.1133 100.495 50.5027 100.495C22.892 100.495 0.5 78.1133 0.5 50.4973C0.5 22.8814 22.8867 0.5 50.5027 0.5C78.1186 0.5 100.5 22.8867 100.5 50.4973Z" fill="#F1F1F1"/>
<path opacity="0.85" d="M98.6415 64.0354L71.9095 37.3034L65.9028 43.3101L52.1162 29.5234L44.7409 36.8987L44.2616 36.4141L25.2617 55.4141L41.1997 71.3521L39.272 73.2798L64.5077 98.5101C81.0155 93.7015 93.998 80.6124 98.6469 64.0354H98.6415Z" fill="#DADADA"/>
<path d="M66.3731 65.0133H62.9597V50.6249C62.9597 49.7462 62.2408 49.0273 61.3622 49.0273H59.3493C58.4707 49.0273 57.7518 49.7462 57.7518 50.6249V65.0133H54.3384C53.4598 65.0133 53.1349 65.615 53.6195 66.3446L59.4718 75.2055C59.9564 75.9404 60.7498 75.9404 61.2344 75.2055L67.0867 66.3446C67.5713 65.6097 67.2464 65.0133 66.3678 65.0133H66.3731Z" fill="#635954"/>
<path d="M75.3398 44.0862C75.3238 39.0433 71.2394 34.9696 66.1966 34.9696C63.5127 34.9696 61.1111 36.1305 59.4337 37.9783C59.0343 36.5352 57.719 35.4755 56.1481 35.4755C56.0363 35.4755 55.9298 35.4862 55.8179 35.4915C55.7594 35.2306 55.6848 34.975 55.6049 34.7194C54.0713 29.751 49.4545 26.1406 43.9803 26.1406C37.26 26.1406 31.8071 31.5882 31.8071 38.3138C31.8071 38.4522 31.8124 38.5854 31.8177 38.7238C31.0775 38.5321 30.3107 38.4203 29.512 38.4203C24.4425 38.4203 20.3262 42.5313 20.3262 47.6061C20.3262 52.6809 24.1549 56.4884 28.9795 56.7653V56.7972H74.2907C77.8213 56.7972 80.6862 53.9323 80.6862 50.3964C80.6862 47.2174 78.3697 44.5921 75.3451 44.0915L75.3398 44.0862Z" fill="white"/>
<path d="M42.041 48.2308C41.5565 47.496 40.763 47.496 40.2784 48.2308L34.4262 57.0918C33.9416 57.8267 34.2664 58.4231 35.145 58.4231H38.5584V72.8115C38.5584 73.6901 39.2773 74.409 40.156 74.409H42.1688C43.0475 74.409 43.7664 73.6901 43.7664 72.8115V58.4231H47.1798C48.0584 58.4231 48.3832 57.8213 47.8986 57.0918L42.0464 48.2308H42.041Z" fill="#ab9b92"/>
</g>
<defs>
<clipPath id="clip0_1535_21689">
<rect width="100" height="100" fill="white" transform="translate(0.5 0.5)"/>
</clipPath>
</defs>
</svg>
