<svg width="16" height="17" viewBox="0 0 16 17" fill="none" xmlns="http://www.w3.org/2000/svg">
<g clip-path="url(#clip0_930_18465)">
<path d="M12.3541 4.40151C12.4006 4.35502 12.4375 4.29983 12.4627 4.23909C12.4878 4.17835 12.5008 4.11325 12.5008 4.04751C12.5008 3.98176 12.4878 3.91666 12.4627 3.85592C12.4375 3.79518 12.4006 3.73999 12.3541 3.69351C12.3077 3.64702 12.2525 3.61014 12.1917 3.58498C12.131 3.55982 12.0659 3.54687 12.0001 3.54688C11.9344 3.54688 11.8693 3.55982 11.8086 3.58498C11.7478 3.61014 11.6926 3.64702 11.6461 3.69351L5.00014 10.3405L1.85414 7.19351C1.80766 7.14702 1.75247 7.11014 1.69173 7.08498C1.63099 7.05982 1.56589 7.04687 1.50014 7.04687C1.36737 7.04687 1.24003 7.09962 1.14614 7.19351C1.05226 7.28739 0.999512 7.41473 0.999512 7.54751C0.999512 7.68028 1.05226 7.80762 1.14614 7.90151L4.64614 11.4015C4.69259 11.4481 4.74776 11.485 4.80851 11.5102C4.86925 11.5354 4.93438 11.5484 5.00014 11.5484C5.06591 11.5484 5.13103 11.5354 5.19178 11.5102C5.25252 11.485 5.3077 11.4481 5.35414 11.4015L12.3541 4.40151ZM8.14614 11.4015L7.25014 10.5045L7.95714 9.79751L8.50014 10.3405L15.1461 3.69351C15.24 3.59962 15.3674 3.54687 15.5001 3.54688C15.6329 3.54688 15.7603 3.59962 15.8541 3.69351C15.948 3.78739 16.0008 3.91473 16.0008 4.04751C16.0008 4.18028 15.948 4.30762 15.8541 4.40151L8.85414 11.4015C8.8077 11.4481 8.75252 11.485 8.69178 11.5102C8.63103 11.5354 8.56591 11.5484 8.50014 11.5484C8.43438 11.5484 8.36926 11.5354 8.30851 11.5102C8.24777 11.485 8.19259 11.4481 8.14614 11.4015Z" fill="#727272"/>
<path d="M5.35414 7.19351L6.25014 8.09051L5.54314 8.79751L4.64614 7.90151C4.55226 7.80762 4.49951 7.68028 4.49951 7.54751C4.49951 7.41473 4.55226 7.28739 4.64614 7.19351C4.74003 7.09962 4.86737 7.04688 5.00014 7.04688C5.13292 7.04688 5.26026 7.09962 5.35414 7.19351Z" fill="#727272"/>
</g>
<defs>
<clipPath id="clip0_930_18465">
<rect width="16" height="16" fill="white" transform="translate(0 0.046875)"/>
</clipPath>
</defs>
</svg>
