<svg width="40" height="40" viewBox="0 0 40 40" fill="none" xmlns="http://www.w3.org/2000/svg">
<path d="M13.2 12.2C12.5373 12.2 12 12.7373 12 13.4V14.6C12 15.2627 12.5373 15.8 13.2 15.8H13.8V26.6C13.8 27.9255 14.8745 29 16.2 29H23.4C24.7255 29 25.8 27.9255 25.8 26.6V15.8H26.4C27.0627 15.8 27.6 15.2627 27.6 14.6V13.4C27.6 12.7373 27.0627 12.2 26.4 12.2H22.2C22.2 11.5373 21.6627 11 21 11H18.6C17.9373 11 17.4 11.5373 17.4 12.2H13.2ZM16.8 17C17.1314 17 17.4 17.2686 17.4 17.6V26C17.4 26.3314 17.1314 26.6 16.8 26.6C16.4686 26.6 16.2 26.3314 16.2 26V17.6C16.2 17.2686 16.4686 17 16.8 17ZM19.8 17C20.1314 17 20.4 17.2686 20.4 17.6V26C20.4 26.3314 20.1314 26.6 19.8 26.6C19.4686 26.6 19.2 26.3314 19.2 26V17.6C19.2 17.2686 19.4686 17 19.8 17ZM23.4 17.6V26C23.4 26.3314 23.1314 26.6 22.8 26.6C22.4686 26.6 22.2 26.3314 22.2 26V17.6C22.2 17.2686 22.4686 17 22.8 17C23.1314 17 23.4 17.2686 23.4 17.6Z" fill="#FF5B5B"/>
</svg>
