<svg width="16" height="16" viewBox="0 0 16 16" fill="none" xmlns="http://www.w3.org/2000/svg">
<rect width="16" height="16" rx="8" fill="#F1F1F1"/>
<path d="M9.4307 6.08789L7.13969 6.375L7.05766 6.75586L7.50883 6.83789C7.8018 6.9082 7.86039 7.01367 7.79594 7.30664L7.05766 10.7754C6.8643 11.6719 7.16312 12.0938 7.86625 12.0938C8.41117 12.0938 9.04398 11.8418 9.33109 11.4961L9.41898 11.0801C9.21977 11.2559 8.9268 11.3262 8.73344 11.3262C8.45805 11.3262 8.35844 11.1328 8.42875 10.793L9.4307 6.08789Z" fill="#0C59D8"/>
<path d="M9.5 4C9.5 4.55228 9.05228 5 8.5 5C7.94772 5 7.5 4.55228 7.5 4C7.5 3.44772 7.94772 3 8.5 3C9.05228 3 9.5 3.44772 9.5 4Z" fill="#0C59D8"/>
</svg>
