<svg width="39" height="22" viewBox="0 0 39 22" fill="none" xmlns="http://www.w3.org/2000/svg">
<g clip-path="url(#clip0_1828_27303)">
<path d="M38.8879 20.0418L31.1388 5.10944C30.9147 4.60117 30.413 4.27481 29.8526 4.27481H9.2631C9.23108 3.96449 9.20973 3.76119 9.19906 3.68628C9.18305 1.64786 7.52329 0 5.48995 0C3.45661 0 1.79685 1.65321 1.78084 3.68628L0.558705 16.2271V16.2432C0.516011 16.5054 0.5 16.7515 0.5 16.9976C0.5 19.7583 2.73614 22 5.48995 22H37.5911C38.0661 22 38.5037 21.7646 38.7652 21.3687C39.0267 20.9728 39.0747 20.4752 38.8879 20.0418ZM3.02433 3.78259V3.72374C3.02433 2.35944 4.12905 1.25195 5.48995 1.25195C6.85085 1.25195 7.95557 2.35944 7.95557 3.72374V3.78794C7.96625 3.85749 8.54263 9.37354 8.92154 13.3487C8.89486 13.322 8.86817 13.3006 8.84149 13.2792C8.78278 13.2257 8.71874 13.1722 8.6547 13.1187C8.60133 13.0759 8.54796 13.0331 8.49459 12.9903C8.43055 12.9421 8.36117 12.894 8.29713 12.8512C8.23842 12.8137 8.18506 12.7763 8.12635 12.7388C8.05697 12.696 7.98759 12.6532 7.91288 12.6158C7.85417 12.5837 7.79547 12.5516 7.73142 12.5195C7.65671 12.482 7.58199 12.4499 7.50194 12.4125C7.4379 12.3857 7.37919 12.3589 7.31515 12.3322C7.2351 12.3001 7.14971 12.2733 7.06966 12.2466C7.00561 12.2252 6.94691 12.2038 6.88287 12.1877C6.79214 12.161 6.70141 12.1449 6.61602 12.1235C6.55732 12.1075 6.49861 12.0914 6.43457 12.0807C6.33317 12.0593 6.23177 12.0486 6.13037 12.0379C6.077 12.0326 6.02897 12.0219 5.9756 12.0165C5.82083 12.0005 5.66073 11.9951 5.50062 11.9951C5.34052 11.9951 5.18575 12.0058 5.03632 12.0165C4.98295 12.0165 4.93492 12.0326 4.88155 12.0379C4.78015 12.0486 4.67875 12.0647 4.57735 12.0807C4.51864 12.0914 4.45994 12.1075 4.40123 12.1235C4.31051 12.1449 4.22512 12.1663 4.13439 12.1877C4.07035 12.2038 4.01164 12.2305 3.9476 12.2466C3.86755 12.2733 3.78216 12.3001 3.70211 12.3322C3.63806 12.3589 3.57936 12.3857 3.52065 12.4125C3.44594 12.4446 3.36589 12.482 3.29117 12.5195C3.23246 12.5516 3.17376 12.5837 3.11505 12.6158C3.04034 12.6532 2.97096 12.696 2.90158 12.7388C2.84288 12.7763 2.78951 12.8137 2.7308 12.8512C2.66142 12.8993 2.59738 12.9421 2.528 12.9956C2.47463 13.0384 2.42126 13.0759 2.3679 13.1187C2.30385 13.1722 2.23981 13.2257 2.18111 13.2792C2.15442 13.3006 2.12774 13.322 2.10105 13.3487L3.035 3.78259H3.02433ZM5.48995 20.7534C3.42459 20.7534 1.74882 19.0681 1.74882 17.0029C1.74882 16.8264 1.7595 16.6498 1.78618 16.4572V16.4197C2.07437 14.6114 3.65941 13.2524 5.48995 13.2524C5.60736 13.2524 5.71943 13.2578 5.83684 13.2685C5.8742 13.2685 5.90622 13.2792 5.94358 13.2845C6.0183 13.2952 6.09835 13.3006 6.17307 13.3166C6.21576 13.322 6.25312 13.3327 6.29048 13.3434C6.35986 13.3594 6.42923 13.3701 6.49861 13.3915C6.54131 13.4022 6.584 13.4183 6.6267 13.4343C6.69074 13.4557 6.75478 13.4718 6.81349 13.4932C6.85618 13.5092 6.89888 13.5306 6.94157 13.5467C7.00028 13.5681 7.05898 13.5948 7.11235 13.6216C7.15505 13.643 7.19774 13.6644 7.24044 13.6911C7.2938 13.7179 7.34717 13.7446 7.40054 13.7768C7.44324 13.7982 7.48059 13.8303 7.51795 13.8517C7.57132 13.8838 7.62469 13.9159 7.67272 13.9533C7.71008 13.9801 7.74744 14.0122 7.77946 14.0389C7.82749 14.0764 7.87552 14.1138 7.92355 14.1513C7.96091 14.1834 7.99293 14.2155 8.02495 14.2476C8.07298 14.2904 8.11568 14.3278 8.15837 14.376C8.19039 14.4081 8.22241 14.4455 8.2491 14.4776C8.29179 14.5258 8.33449 14.5686 8.37185 14.6167C8.40387 14.6542 8.42521 14.6916 8.45724 14.7291C8.49459 14.7772 8.53195 14.8254 8.56931 14.8789C8.59599 14.9163 8.61734 14.9591 8.64403 14.9966C8.67605 15.0501 8.7134 15.0982 8.74009 15.1571C8.76144 15.1999 8.78278 15.2427 8.80413 15.2855C8.83082 15.339 8.86284 15.3979 8.88952 15.4567C8.91087 15.4995 8.92688 15.5477 8.94289 15.5905C8.96424 15.6493 8.99092 15.7082 9.01227 15.767C9.02828 15.8152 9.03895 15.8633 9.05496 15.9061C9.07097 15.965 9.09232 16.0292 9.10833 16.088C9.119 16.1362 9.12968 16.1843 9.14035 16.2378C9.15636 16.302 9.16704 16.3662 9.17771 16.4358C9.20439 16.6445 9.2204 16.8317 9.2204 17.019C9.2204 19.0895 7.5393 20.7695 5.47928 20.7695L5.48995 20.7534ZM37.7245 20.6785C37.7031 20.7106 37.6604 20.7481 37.5911 20.7481H8.77745C9.81813 19.8332 10.4799 18.4903 10.4799 16.9976C10.4799 16.7622 10.4639 16.5321 10.4319 16.286V16.2592C10.2558 13.9908 9.69538 8.44261 9.39118 5.5214H29.8526C29.9167 5.5214 29.9754 5.55885 29.9967 5.6177L37.7405 20.5394C37.7619 20.5982 37.7405 20.6464 37.7192 20.6732L37.7245 20.6785ZM34.1488 18.1693C34.3676 18.5812 34.1008 19.1109 33.6098 19.1109H30.9574C30.1515 19.1109 30.1568 17.8589 30.9574 17.8589H32.5798C31.8433 16.4465 31.1068 15.0287 30.365 13.6162C30.1248 13.1561 29.8847 12.6907 29.6392 12.2305C27.9527 12.2626 26.2716 12.2947 24.5852 12.3268C23.7793 12.3429 23.7847 11.091 24.5852 11.0749C26.0528 11.0482 27.5258 11.0161 28.9934 10.9893C28.8974 10.802 28.796 10.6094 28.6999 10.4222C28.5558 10.1493 27.9047 9.26119 27.7499 8.76897C27.5845 8.75827 27.4084 8.73687 27.3497 8.73687H13.8048C13.9328 9.518 14.0609 10.2991 14.1943 11.0803H20.8867C21.1643 11.0803 21.4098 11.2782 21.4898 11.5404C21.8367 12.6746 22.1836 13.8089 22.5305 14.9431C22.7653 15.7135 21.5645 16.0399 21.3297 15.2748C21.0308 14.2957 20.7266 13.3113 20.4278 12.3322H14.4078C14.712 14.1727 15.0162 16.0131 15.3204 17.8536H25.8233C25.4444 16.7729 25.0708 15.6868 24.6973 14.606C24.4304 13.841 25.6365 13.5199 25.898 14.2743C26.3677 15.6226 26.832 16.9655 27.3016 18.3137C27.4351 18.7043 27.0828 19.1055 26.6986 19.1055H14.7921C14.5412 19.1055 14.237 18.9129 14.189 18.6454C13.618 15.1892 13.0469 11.733 12.4759 8.27675C12.4118 7.88084 12.636 7.48492 13.0789 7.48492H28.2036C28.417 7.48492 28.6412 7.60263 28.7426 7.79523C30.5464 11.2515 32.345 14.7077 34.1488 18.1639V18.1693Z" fill="#0C59D8"/>
</g>
<defs>
<clipPath id="clip0_1828_27303">
<rect width="38.5" height="22" fill="white" transform="translate(0.5)"/>
</clipPath>
</defs>
</svg>
