<svg width="25" height="26" viewBox="0 0 25 26" fill="none" xmlns="http://www.w3.org/2000/svg">
<path d="M15.2505 11.5H19.183C19.3949 11.5 19.5107 11.7472 19.375 11.91L17.4088 14.2695C17.3088 14.3895 17.1246 14.3895 17.0247 14.2695L15.0584 11.91C14.9227 11.7472 15.0385 11.5 15.2505 11.5Z" fill="#333D4B"/>
<path d="M4.25048 13.5H8.18296C8.39492 13.5 8.51071 13.2528 8.37501 13.09L6.40877 10.7305C6.30882 10.6105 6.12461 10.6105 6.02466 10.7305L4.05842 13.09C3.92273 13.2528 4.03852 13.5 4.25048 13.5Z" fill="#333D4B"/>
<path fill-rule="evenodd" clip-rule="evenodd" d="M11.7167 7.5C10.1642 7.5 8.77728 8.20697 7.8594 9.31839C7.68356 9.53131 7.36841 9.56137 7.15549 9.38552C6.94257 9.20968 6.91251 8.89453 7.08836 8.68161C8.18806 7.35003 9.85334 6.5 11.7167 6.5C14.6584 6.5 17.1047 8.6165 17.6178 11.4097C17.6233 11.4397 17.6286 11.4698 17.6337 11.5H16.6168C16.1538 9.21778 14.1353 7.5 11.7167 7.5ZM6.81664 13.5C7.27965 15.7822 9.29809 17.5 11.7167 17.5C13.2692 17.5 14.6562 16.793 15.574 15.6816C15.7499 15.4687 16.065 15.4386 16.2779 15.6145C16.4909 15.7903 16.5209 16.1055 16.3451 16.3184C15.2454 17.65 13.5801 18.5 11.7167 18.5C8.77501 18.5 6.3287 16.3835 5.81563 13.5903C5.81012 13.5603 5.80482 13.5302 5.79976 13.5H6.81664Z" fill="#333D4B"/>
</svg>
