<svg width="115" height="115" viewBox="0 0 115 115" fill="none" xmlns="http://www.w3.org/2000/svg">
<g clip-path="url(#clip0_1828_26322)">
<path d="M114.501 57.4974C114.501 88.9799 88.9799 114.495 57.5035 114.495C26.0271 114.495 0.5 88.9799 0.5 57.4974C0.5 26.015 26.0211 0.5 57.5035 0.5C88.9859 0.5 114.501 26.0211 114.501 57.4974Z" fill="#F1F1F1"/>
<path opacity="0.85" d="M112.382 72.9289L81.9075 42.4542L75.0598 49.3019L59.3429 33.585L50.935 41.9928L50.3886 41.4404L28.7285 63.1005L46.898 81.27L44.7004 83.4676L73.4693 112.23C92.2883 106.749 107.089 91.8269 112.388 72.9289H112.382Z" fill="#DADADA"/>
<path d="M75.5936 74.0464H71.7023V57.6435C71.7023 56.6418 70.8827 55.8223 69.8811 55.8223H67.5864C66.5847 55.8223 65.7652 56.6418 65.7652 57.6435V74.0464H61.8739C60.8722 74.0464 60.5019 74.7324 61.0543 75.5641L67.726 85.6656C68.2784 86.5034 69.1829 86.5034 69.7354 85.6656L76.407 75.5641C76.9595 74.7263 76.5892 74.0464 75.5875 74.0464H75.5936Z" fill="#223757"/>
<path d="M85.8166 50.1886C85.7984 44.4397 81.1422 39.7956 75.3933 39.7956C72.3336 39.7956 69.5958 41.119 67.6835 43.2255C67.2282 41.5804 65.7288 40.3723 63.9379 40.3723C63.8104 40.3723 63.689 40.3845 63.5615 40.3905C63.4948 40.0931 63.4098 39.8017 63.3187 39.5103C61.5704 33.8464 56.3071 29.7305 50.0665 29.7305C42.4053 29.7305 36.1889 35.9408 36.1889 43.608C36.1889 43.7658 36.195 43.9176 36.2011 44.0754C35.3573 43.8569 34.4831 43.7294 33.5725 43.7294C27.7932 43.7294 23.1006 48.416 23.1006 54.2013C23.1006 59.9866 27.4654 64.3272 32.9654 64.6428V64.6793H84.6207C88.6455 64.6793 91.9115 61.4132 91.9115 57.3823C91.9115 53.7581 89.2708 50.7653 85.8227 50.1947L85.8166 50.1886Z" fill="white"/>
<path d="M47.8565 54.9115C47.304 54.0738 46.3995 54.0738 45.8471 54.9115L39.1754 65.0131C38.623 65.8508 38.9933 66.5308 39.995 66.5308H43.8863V82.9337C43.8863 83.9353 44.7058 84.7549 45.7075 84.7549H48.0022C49.0038 84.7549 49.8234 83.9353 49.8234 82.9337V66.5308H53.7147C54.7163 66.5308 55.0866 65.8448 54.5342 65.0131L47.8625 54.9115H47.8565Z" fill="#0C59D8"/>
</g>
<defs>
<clipPath id="clip0_1828_26322">
<rect width="114.001" height="114.001" fill="white" transform="translate(0.5 0.5)"/>
</clipPath>
</defs>
</svg>
