<svg width="30" height="30" viewBox="0 0 30 30" fill="none" xmlns="http://www.w3.org/2000/svg">
<path fill-rule="evenodd" clip-rule="evenodd" d="M19.1778 13.4987C18.4631 10.8314 15.7214 9.24845 13.0541 9.96316C10.3867 10.6779 8.80382 13.4196 9.51853 16.0869C10.2332 18.7542 12.9749 20.3371 15.6423 19.6224C16.3623 19.4295 17.0021 19.0895 17.5393 18.6438C17.7518 18.4674 18.067 18.4968 18.2433 18.7093C18.4197 18.9218 18.3904 19.237 18.1778 19.4133C17.532 19.9493 16.7632 20.3573 15.9011 20.5883C12.7003 21.446 9.41026 19.5465 8.55261 16.3457C7.69496 13.1449 9.59445 9.85488 12.7952 8.99723C15.996 8.13958 19.2861 10.0391 20.1437 13.2399L19.1778 13.4987Z" fill="white"/>
<path d="M17.7615 13.8782L21.56 12.8604C21.7647 12.8055 21.9406 13.0143 21.8516 13.2067L20.5631 15.9947C20.4976 16.1365 20.3196 16.1841 20.1921 16.0942L17.6821 14.324C17.5089 14.2018 17.5568 13.933 17.7615 13.8782Z" fill="white"/>
<path fill-rule="evenodd" clip-rule="evenodd" d="M19.1778 13.4987C18.4631 10.8314 15.7214 9.24845 13.0541 9.96316C10.3867 10.6779 8.80382 13.4196 9.51853 16.0869C10.2332 18.7542 12.9749 20.3371 15.6423 19.6224C16.3623 19.4295 17.0021 19.0895 17.5393 18.6438C17.7518 18.4674 18.067 18.4968 18.2433 18.7093C18.4197 18.9218 18.3904 19.237 18.1778 19.4133C17.532 19.9493 16.7632 20.3573 15.9011 20.5883C12.7003 21.446 9.41026 19.5465 8.55261 16.3457C7.69496 13.1449 9.59445 9.85488 12.7952 8.99723C15.996 8.13958 19.2861 10.0391 20.1437 13.2399L19.1778 13.4987Z" stroke="#333D4B"/>
<path d="M17.7615 13.8782L21.56 12.8604C21.7647 12.8055 21.9406 13.0143 21.8516 13.2067L20.5631 15.9947C20.4976 16.1365 20.3196 16.1841 20.1921 16.0942L17.6821 14.324C17.5089 14.2018 17.5568 13.933 17.7615 13.8782Z" stroke="#333D4B"/>
</svg>
