<svg width="24" height="25" viewBox="0 0 24 25" fill="none" xmlns="http://www.w3.org/2000/svg">
<path d="M4.5 14.4014C4.77614 14.4014 5 14.6252 5 14.9014V17.4014C5 17.9537 5.44772 18.4014 6 18.4014H18C18.5523 18.4014 19 17.9537 19 17.4014V14.9014C19 14.6252 19.2239 14.4014 19.5 14.4014C19.7761 14.4014 20 14.6252 20 14.9014V17.4014C20 18.5059 19.1046 19.4014 18 19.4014H6C4.89543 19.4014 4 18.5059 4 17.4014V14.9014C4 14.6252 4.22386 14.4014 4.5 14.4014Z" fill="white" stroke="white" stroke-linecap="round"/>
<path d="M12.3536 5.64742C12.1583 5.45216 11.8417 5.45216 11.6464 5.64742L8.64645 8.64742C8.45118 8.84269 8.45118 9.15927 8.64645 9.35453C8.84171 9.54979 9.15829 9.54979 9.35355 9.35453L11.5 7.20808L11.5 16.001C11.5 16.2771 11.7239 16.501 12 16.501C12.2761 16.501 12.5 16.2771 12.5 16.001L12.5 7.20808L14.6464 9.35453C14.8417 9.54979 15.1583 9.54979 15.3536 9.35453C15.5488 9.15927 15.5488 8.84269 15.3536 8.64742L12.3536 5.64742Z" fill="white" stroke="white" stroke-linecap="round" stroke-linejoin="round"/>
</svg>
