<svg width="14" height="16" viewBox="0 0 14 16" fill="none" xmlns="http://www.w3.org/2000/svg">
<path d="M2 1.54688C2 1.28166 2.10536 1.0273 2.29289 0.839768C2.48043 0.652232 2.73478 0.546875 3 0.546875H11C11.2652 0.546875 11.5196 0.652232 11.7071 0.839768C11.8946 1.0273 12 1.28166 12 1.54688V14.5469H13.5C13.6326 14.5469 13.7598 14.5996 13.8536 14.6933C13.9473 14.7871 14 14.9143 14 15.0469C14 15.1795 13.9473 15.3067 13.8536 15.4004C13.7598 15.4942 13.6326 15.5469 13.5 15.5469H0.5C0.367392 15.5469 0.240215 15.4942 0.146447 15.4004C0.0526784 15.3067 0 15.1795 0 15.0469C0 14.9143 0.0526784 14.7871 0.146447 14.6933C0.240215 14.5996 0.367392 14.5469 0.5 14.5469H2V1.54688ZM3 14.5469H11V1.54688H3V14.5469Z" fill="white"/>
</svg>
