<svg width="18" height="10" viewBox="0 0 18 10" fill="none" xmlns="http://www.w3.org/2000/svg">
<path fill-rule="evenodd" clip-rule="evenodd" d="M0 9.5C0 9.22386 0.335786 9 0.75 9H17.25C17.6642 9 18 9.22386 18 9.5C18 9.77614 17.6642 10 17.25 10H0.75C0.335786 10 0 9.77614 0 9.5Z" fill="#333D4B"/>
<path fill-rule="evenodd" clip-rule="evenodd" d="M0 6.5C0 6.22386 0.335786 6 0.75 6H17.25C17.6642 6 18 6.22386 18 6.5C18 6.77614 17.6642 7 17.25 7H0.75C0.335786 7 0 6.77614 0 6.5Z" fill="#333D4B"/>
<path fill-rule="evenodd" clip-rule="evenodd" d="M0 3.5C0 3.22386 0.335786 3 0.75 3H17.25C17.6642 3 18 3.22386 18 3.5C18 3.77614 17.6642 4 17.25 4H0.75C0.335786 4 0 3.77614 0 3.5Z" fill="#333D4B"/>
<path fill-rule="evenodd" clip-rule="evenodd" d="M0 0.5C0 0.223858 0.335786 0 0.75 0H17.25C17.6642 0 18 0.223858 18 0.5C18 0.776142 17.6642 1 17.25 1H0.75C0.335786 1 0 0.776142 0 0.5Z" fill="#333D4B"/>
</svg>
