<svg width="16" height="17" viewBox="0 0 16 17" fill="none" xmlns="http://www.w3.org/2000/svg">
<g clip-path="url(#clip0_930_18462)">
<path d="M2.5 1.04688C2.23478 1.04688 1.98043 1.15223 1.79289 1.33977C1.60536 1.5273 1.5 1.78166 1.5 2.04688V3.04688C1.5 3.31209 1.60536 3.56645 1.79289 3.75398C1.98043 3.94152 2.23478 4.04688 2.5 4.04688H3V13.0469C3 13.5773 3.21071 14.086 3.58579 14.4611C3.96086 14.8362 4.46957 15.0469 5 15.0469H11C11.5304 15.0469 12.0391 14.8362 12.4142 14.4611C12.7893 14.086 13 13.5773 13 13.0469V4.04688H13.5C13.7652 4.04688 14.0196 3.94152 14.2071 3.75398C14.3946 3.56645 14.5 3.31209 14.5 3.04688V2.04688C14.5 1.78166 14.3946 1.5273 14.2071 1.33977C14.0196 1.15223 13.7652 1.04688 13.5 1.04688H10C10 0.781659 9.89464 0.527305 9.70711 0.339768C9.51957 0.152232 9.26522 0.046875 9 0.046875L7 0.046875C6.73478 0.046875 6.48043 0.152232 6.29289 0.339768C6.10536 0.527305 6 0.781659 6 1.04688H2.5ZM5.5 5.04688C5.63261 5.04688 5.75979 5.09955 5.85355 5.19332C5.94732 5.28709 6 5.41427 6 5.54688V12.5469C6 12.6795 5.94732 12.8067 5.85355 12.9004C5.75979 12.9942 5.63261 13.0469 5.5 13.0469C5.36739 13.0469 5.24021 12.9942 5.14645 12.9004C5.05268 12.8067 5 12.6795 5 12.5469V5.54688C5 5.41427 5.05268 5.28709 5.14645 5.19332C5.24021 5.09955 5.36739 5.04688 5.5 5.04688ZM8 5.04688C8.13261 5.04688 8.25979 5.09955 8.35355 5.19332C8.44732 5.28709 8.5 5.41427 8.5 5.54688V12.5469C8.5 12.6795 8.44732 12.8067 8.35355 12.9004C8.25979 12.9942 8.13261 13.0469 8 13.0469C7.86739 13.0469 7.74021 12.9942 7.64645 12.9004C7.55268 12.8067 7.5 12.6795 7.5 12.5469V5.54688C7.5 5.41427 7.55268 5.28709 7.64645 5.19332C7.74021 5.09955 7.86739 5.04688 8 5.04688ZM11 5.54688V12.5469C11 12.6795 10.9473 12.8067 10.8536 12.9004C10.7598 12.9942 10.6326 13.0469 10.5 13.0469C10.3674 13.0469 10.2402 12.9942 10.1464 12.9004C10.0527 12.8067 10 12.6795 10 12.5469V5.54688C10 5.41427 10.0527 5.28709 10.1464 5.19332C10.2402 5.09955 10.3674 5.04688 10.5 5.04688C10.6326 5.04688 10.7598 5.09955 10.8536 5.19332C10.9473 5.28709 11 5.41427 11 5.54688Z" fill="white"/>
</g>
<defs>
<clipPath id="clip0_930_18462">
<rect width="16" height="16" fill="white" transform="translate(0 0.046875)"/>
</clipPath>
</defs>
</svg>
