<svg width="24" height="24" viewBox="0 0 24 24" fill="none" xmlns="http://www.w3.org/2000/svg">
<path d="M5.83333 21.3333C5.32917 21.3333 4.89742 21.1537 4.53808 20.7943C4.17875 20.435 3.99939 20.0036 4 19.5V6.66667C4 6.1625 4.17967 5.73075 4.539 5.37142C4.89833 5.01208 5.32978 4.83272 5.83333 4.83333H6.75V3H8.58334V4.83333H15.9167V3H17.75V4.83333H18.6667C19.1708 4.83333 19.6026 5.013 19.9619 5.37233C20.3213 5.73167 20.5006 6.16311 20.5 6.66667V19.5C20.5 20.0042 20.3203 20.4359 19.961 20.7952C19.6017 21.1546 19.1702 21.3339 18.6667 21.3333H5.83333ZM5.83333 19.5H18.6667V10.3333H5.83333V19.5ZM5.83333 8.5H18.6667V6.66667H5.83333V8.5ZM12.25 14C11.9903 14 11.7724 13.912 11.5964 13.736C11.4204 13.56 11.3327 13.3424 11.3333 13.0833C11.3333 12.8236 11.4213 12.6058 11.5973 12.4297C11.7733 12.2537 11.9909 12.1661 12.25 12.1667C12.5097 12.1667 12.7276 12.2547 12.9036 12.4307C13.0796 12.6067 13.1673 12.8242 13.1667 13.0833C13.1667 13.3431 13.0787 13.5609 12.9027 13.7369C12.7267 13.9129 12.5091 14.0006 12.25 14ZM8.58334 14C8.32361 14 8.10575 13.912 7.92975 13.736C7.75375 13.56 7.66606 13.3424 7.66667 13.0833C7.66667 12.8236 7.75467 12.6058 7.93067 12.4297C8.10667 12.2537 8.32422 12.1661 8.58334 12.1667C8.84306 12.1667 9.06092 12.2547 9.23692 12.4307C9.41292 12.6067 9.50061 12.8242 9.5 13.0833C9.5 13.3431 9.412 13.5609 9.236 13.7369C9.06 13.9129 8.84245 14.0006 8.58334 14ZM15.9167 14C15.6569 14 15.4391 13.912 15.2631 13.736C15.0871 13.56 14.9994 13.3424 15 13.0833C15 12.8236 15.088 12.6058 15.264 12.4297C15.44 12.2537 15.6576 12.1661 15.9167 12.1667C16.1764 12.1667 16.3943 12.2547 16.5703 12.4307C16.7463 12.6067 16.8339 12.8242 16.8333 13.0833C16.8333 13.3431 16.7453 13.5609 16.5693 13.7369C16.3933 13.9129 16.1758 14.0006 15.9167 14ZM12.25 17.6667C11.9903 17.6667 11.7724 17.5787 11.5964 17.4027C11.4204 17.2267 11.3327 17.0091 11.3333 16.75C11.3333 16.4903 11.4213 16.2724 11.5973 16.0964C11.7733 15.9204 11.9909 15.8327 12.25 15.8333C12.5097 15.8333 12.7276 15.9213 12.9036 16.0973C13.0796 16.2733 13.1673 16.4909 13.1667 16.75C13.1667 17.0097 13.0787 17.2276 12.9027 17.4036C12.7267 17.5796 12.5091 17.6673 12.25 17.6667ZM8.58334 17.6667C8.32361 17.6667 8.10575 17.5787 7.92975 17.4027C7.75375 17.2267 7.66606 17.0091 7.66667 16.75C7.66667 16.4903 7.75467 16.2724 7.93067 16.0964C8.10667 15.9204 8.32422 15.8327 8.58334 15.8333C8.84306 15.8333 9.06092 15.9213 9.23692 16.0973C9.41292 16.2733 9.50061 16.4909 9.5 16.75C9.5 17.0097 9.412 17.2276 9.236 17.4036C9.06 17.5796 8.84245 17.6673 8.58334 17.6667ZM15.9167 17.6667C15.6569 17.6667 15.4391 17.5787 15.2631 17.4027C15.0871 17.2267 14.9994 17.0091 15 16.75C15 16.4903 15.088 16.2724 15.264 16.0964C15.44 15.9204 15.6576 15.8327 15.9167 15.8333C16.1764 15.8333 16.3943 15.9213 16.5703 16.0973C16.7463 16.2733 16.8339 16.4909 16.8333 16.75C16.8333 17.0097 16.7453 17.2276 16.5693 17.4036C16.3933 17.5796 16.1758 17.6673 15.9167 17.6667Z" fill="#0c59d8"/>
</svg>
