<svg width="25" height="25" viewBox="0 0 25 25" fill="none" xmlns="http://www.w3.org/2000/svg">
<path d="M24.1667 21.6671H22.5V10.0004C22.5 9.5584 22.3244 9.13448 22.0118 8.82192C21.6993 8.50936 21.2754 8.33377 20.8333 8.33377H14.1667V3.33377C14.1669 3.03196 14.0851 2.73576 13.9301 2.47679C13.7751 2.21781 13.5527 2.00579 13.2866 1.86334C13.0206 1.72089 12.7208 1.65336 12.4193 1.66797C12.1179 1.68257 11.8261 1.77876 11.575 1.94627L3.24167 7.50043C3.01306 7.65295 2.82572 7.85964 2.69632 8.10208C2.56692 8.34452 2.49948 8.6152 2.5 8.89002V21.6671H0.833333C0.61232 21.6671 0.400358 21.7549 0.244078 21.9112C0.0877973 22.0675 0 22.2794 0 22.5004C0 22.7214 0.0877973 22.9334 0.244078 23.0897C0.400358 23.246 0.61232 23.3338 0.833333 23.3338H24.1667C24.3877 23.3338 24.5996 23.246 24.7559 23.0897C24.9122 22.9334 25 22.7214 25 22.5004C25 22.2794 24.9122 22.0675 24.7559 21.9112C24.5996 21.7549 24.3877 21.6671 24.1667 21.6671ZM20.8333 10.0004V21.6671H14.1667V10.0004H20.8333ZM4.16667 8.89002L12.5 3.33377V21.6671H4.16667V8.89002ZM10.8333 11.6671V13.3338C10.8333 13.5548 10.7455 13.7667 10.5893 13.923C10.433 14.0793 10.221 14.1671 10 14.1671C9.77899 14.1671 9.56703 14.0793 9.41074 13.923C9.25446 13.7667 9.16667 13.5548 9.16667 13.3338V11.6671C9.16667 11.4461 9.25446 11.2341 9.41074 11.0778C9.56703 10.9216 9.77899 10.8338 10 10.8338C10.221 10.8338 10.433 10.9216 10.5893 11.0778C10.7455 11.2341 10.8333 11.4461 10.8333 11.6671ZM7.5 11.6671V13.3338C7.5 13.5548 7.4122 13.7667 7.25592 13.923C7.09964 14.0793 6.88768 14.1671 6.66667 14.1671C6.44565 14.1671 6.23369 14.0793 6.07741 13.923C5.92113 13.7667 5.83333 13.5548 5.83333 13.3338V11.6671C5.83333 11.4461 5.92113 11.2341 6.07741 11.0778C6.23369 10.9216 6.44565 10.8338 6.66667 10.8338C6.88768 10.8338 7.09964 10.9216 7.25592 11.0778C7.4122 11.2341 7.5 11.4461 7.5 11.6671ZM7.5 17.5004V19.1671C7.5 19.3881 7.4122 19.6001 7.25592 19.7564C7.09964 19.9126 6.88768 20.0004 6.66667 20.0004C6.44565 20.0004 6.23369 19.9126 6.07741 19.7564C5.92113 19.6001 5.83333 19.3881 5.83333 19.1671V17.5004C5.83333 17.2794 5.92113 17.0675 6.07741 16.9112C6.23369 16.7549 6.44565 16.6671 6.66667 16.6671C6.88768 16.6671 7.09964 16.7549 7.25592 16.9112C7.4122 17.0675 7.5 17.2794 7.5 17.5004ZM10.8333 17.5004V19.1671C10.8333 19.3881 10.7455 19.6001 10.5893 19.7564C10.433 19.9126 10.221 20.0004 10 20.0004C9.77899 20.0004 9.56703 19.9126 9.41074 19.7564C9.25446 19.6001 9.16667 19.3881 9.16667 19.1671V17.5004C9.16667 17.2794 9.25446 17.0675 9.41074 16.9112C9.56703 16.7549 9.77899 16.6671 10 16.6671C10.221 16.6671 10.433 16.7549 10.5893 16.9112C10.7455 17.0675 10.8333 17.2794 10.8333 17.5004Z" fill="#0C59D8"/>
</svg>
