<svg width="25" height="25" viewBox="0 0 25 25" fill="none" xmlns="http://www.w3.org/2000/svg">
<path d="M20.75 6.5H17V5.75C17 5.15326 16.7629 4.58097 16.341 4.15901C15.919 3.73705 15.3467 3.5 14.75 3.5H10.25C9.65326 3.5 9.08097 3.73705 8.65901 4.15901C8.23705 4.58097 8 5.15326 8 5.75V6.5H4.25C3.85218 6.5 3.47064 6.65804 3.18934 6.93934C2.90804 7.22064 2.75 7.60218 2.75 8V20C2.75 20.3978 2.90804 20.7794 3.18934 21.0607C3.47064 21.342 3.85218 21.5 4.25 21.5H20.75C21.1478 21.5 21.5294 21.342 21.8107 21.0607C22.092 20.7794 22.25 20.3978 22.25 20V8C22.25 7.60218 22.092 7.22064 21.8107 6.93934C21.5294 6.65804 21.1478 6.5 20.75 6.5ZM9.5 5.75C9.5 5.55109 9.57902 5.36032 9.71967 5.21967C9.86032 5.07902 10.0511 5 10.25 5H14.75C14.9489 5 15.1397 5.07902 15.2803 5.21967C15.421 5.36032 15.5 5.55109 15.5 5.75V6.5H9.5V5.75ZM20.75 8V11.9009C18.2185 13.2789 15.3822 14.0005 12.5 14C9.61794 14.0005 6.78165 13.2792 4.25 11.9019V8H20.75ZM20.75 20H4.25V13.5912C6.81868 14.8477 9.6405 15.5006 12.5 15.5C15.3596 15.5001 18.1813 14.8469 20.75 13.5903V20ZM10.25 11.75C10.25 11.5511 10.329 11.3603 10.4697 11.2197C10.6103 11.079 10.8011 11 11 11H14C14.1989 11 14.3897 11.079 14.5303 11.2197C14.671 11.3603 14.75 11.5511 14.75 11.75C14.75 11.9489 14.671 12.1397 14.5303 12.2803C14.3897 12.421 14.1989 12.5 14 12.5H11C10.8011 12.5 10.6103 12.421 10.4697 12.2803C10.329 12.1397 10.25 11.9489 10.25 11.75Z" fill="white"/>
</svg>
