<svg width="25" height="25" viewBox="0 0 25 25" fill="none" xmlns="http://www.w3.org/2000/svg">
<path d="M11.495 15.3014C12.5002 14.6322 13.2634 13.6573 13.6716 12.5208C14.0799 11.3844 14.1116 10.1467 13.762 8.99083C13.4125 7.83496 12.7002 6.82227 11.7306 6.10251C10.7609 5.38275 9.58543 4.99414 8.37785 4.99414C7.17028 4.99414 5.99477 5.38275 5.02514 6.10251C4.05551 6.82227 3.34325 7.83496 2.99369 8.99083C2.64412 10.1467 2.67581 11.3844 3.08407 12.5208C3.49233 13.6573 4.25548 14.6322 5.26067 15.3014C3.44238 15.9716 1.88952 17.2117 0.833792 18.8367C0.778306 18.9192 0.739766 19.0119 0.720412 19.1094C0.701057 19.2069 0.701273 19.3072 0.721049 19.4046C0.740825 19.502 0.779764 19.5945 0.835605 19.6768C0.891446 19.759 0.963074 19.8293 1.04633 19.8836C1.12958 19.9379 1.22279 19.9751 1.32055 19.9931C1.41831 20.011 1.51866 20.0094 1.61578 19.9882C1.71289 19.967 1.80483 19.9268 1.88625 19.8698C1.96766 19.8128 2.03694 19.7401 2.09004 19.6561C2.77103 18.6087 3.70288 17.748 4.80095 17.1522C5.89903 16.5564 7.12855 16.2443 8.37785 16.2443C9.62716 16.2443 10.8567 16.5564 11.9548 17.1522C13.0528 17.748 13.9847 18.6087 14.6657 19.6561C14.7757 19.8196 14.9456 19.9332 15.1387 19.9724C15.3318 20.0116 15.5326 19.9733 15.6977 19.8656C15.8627 19.758 15.9788 19.5897 16.0207 19.3972C16.0627 19.2046 16.0272 19.0033 15.9219 18.8367C14.8662 17.2117 13.3133 15.9716 11.495 15.3014ZM4.25285 10.6214C4.25285 9.80557 4.49478 9.00805 4.94804 8.3297C5.4013 7.65134 6.04554 7.12263 6.79928 6.81042C7.55303 6.49821 8.38243 6.41652 9.1826 6.57568C9.98277 6.73485 10.7178 7.12772 11.2947 7.70461C11.8716 8.2815 12.2644 9.0165 12.4236 9.81668C12.5828 10.6168 12.5011 11.4462 12.1889 12.2C11.8766 12.9537 11.3479 13.598 10.6696 14.0512C9.99123 14.5045 9.1937 14.7464 8.37785 14.7464C7.28422 14.7452 6.23573 14.3102 5.46241 13.5369C4.68909 12.7635 4.25409 11.7151 4.25285 10.6214ZM23.9535 19.8745C23.7869 19.9832 23.584 20.0212 23.3893 19.9802C23.1947 19.9393 23.0243 19.8227 22.9157 19.6561C22.2355 18.6081 21.3038 17.747 20.2055 17.1515C19.1072 16.5559 17.8772 16.2448 16.6279 16.2464C16.4289 16.2464 16.2382 16.1674 16.0975 16.0268C15.9569 15.8861 15.8779 15.6953 15.8779 15.4964C15.8779 15.2975 15.9569 15.1067 16.0975 14.9661C16.2382 14.8254 16.4289 14.7464 16.6279 14.7464C17.2353 14.7459 17.8352 14.6111 18.3845 14.3518C18.9339 14.0926 19.4192 13.7152 19.8058 13.2466C20.1924 12.778 20.4707 12.2298 20.6209 11.6412C20.7711 11.0526 20.7894 10.4381 20.6746 9.84156C20.5597 9.24505 20.3145 8.68126 19.9566 8.19048C19.5986 7.69971 19.1366 7.29406 18.6036 7.00252C18.0707 6.71098 17.4799 6.54075 16.8736 6.50398C16.2672 6.46722 15.6602 6.56484 15.096 6.78986C15.004 6.82963 14.9049 6.85056 14.8047 6.85141C14.7045 6.85225 14.6051 6.833 14.5125 6.79479C14.4198 6.75658 14.3357 6.70019 14.2652 6.62894C14.1947 6.55769 14.1392 6.47304 14.102 6.37998C14.0648 6.28692 14.0466 6.18734 14.0485 6.08713C14.0504 5.98692 14.0724 5.88811 14.1131 5.79653C14.1539 5.70496 14.2126 5.62248 14.2857 5.55398C14.3589 5.48547 14.4451 5.43232 14.5391 5.39767C15.8305 4.88266 17.2668 4.86413 18.571 5.34565C19.8753 5.82717 20.955 6.77463 21.6019 8.00525C22.2487 9.23587 22.417 10.6625 22.0741 12.0098C21.7312 13.3571 20.9015 14.5297 19.745 15.3014C21.5633 15.9716 23.1162 17.2117 24.1719 18.8367C24.2806 19.0033 24.3186 19.2063 24.2776 19.4009C24.2366 19.5955 24.1201 19.7659 23.9535 19.8745Z" fill="white"/>
</svg>
