<svg width="25" height="25" viewBox="0 0 25 25" fill="none" xmlns="http://www.w3.org/2000/svg">
<g clip-path="url(#clip0_830_38288)">
<path d="M12.5 0.5C10.1266 0.5 7.80655 1.20379 5.83316 2.52236C3.85977 3.84094 2.3217 5.71508 1.41345 7.9078C0.505199 10.1005 0.267559 12.5133 0.730582 14.8411C1.1936 17.1689 2.33649 19.307 4.01472 20.9853C5.69295 22.6635 7.83115 23.8064 10.1589 24.2694C12.4867 24.7324 14.8995 24.4948 17.0922 23.5865C19.2849 22.6783 21.1591 21.1402 22.4776 19.1668C23.7962 17.1934 24.5 14.8734 24.5 12.5C24.4966 9.31843 23.2313 6.26814 20.9816 4.01843C18.7319 1.76872 15.6816 0.50336 12.5 0.5ZM12.5 22.6538C10.4918 22.6538 8.52862 22.0583 6.85883 20.9426C5.18904 19.8269 3.88759 18.2411 3.11907 16.3857C2.35055 14.5303 2.14947 12.4887 2.54126 10.5191C2.93305 8.54943 3.90011 6.74019 5.32015 5.32015C6.74019 3.90011 8.54943 2.93305 10.5191 2.54126C12.4887 2.14947 14.5303 2.35055 16.3857 3.11907C18.2411 3.88759 19.8269 5.18903 20.9426 6.85882C22.0583 8.52861 22.6538 10.4918 22.6538 12.5C22.6508 15.192 21.58 17.7729 19.6765 19.6765C17.7729 21.58 15.192 22.6508 12.5 22.6538ZM14.3462 18.0385C14.3462 18.2833 14.2489 18.5181 14.0758 18.6912C13.9027 18.8643 13.6679 18.9615 13.4231 18.9615C12.9334 18.9615 12.4639 18.767 12.1177 18.4208C11.7714 18.0746 11.5769 17.605 11.5769 17.1154V12.5C11.3321 12.5 11.0973 12.4027 10.9242 12.2296C10.7511 12.0565 10.6538 11.8217 10.6538 11.5769C10.6538 11.3321 10.7511 11.0973 10.9242 10.9242C11.0973 10.7511 11.3321 10.6538 11.5769 10.6538C12.0666 10.6538 12.5361 10.8483 12.8824 11.1946C13.2286 11.5408 13.4231 12.0104 13.4231 12.5V17.1154C13.6679 17.1154 13.9027 17.2126 14.0758 17.3857C14.2489 17.5589 14.3462 17.7936 14.3462 18.0385ZM10.6538 7.42308C10.6538 7.14922 10.7351 6.88152 10.8872 6.65382C11.0393 6.42613 11.2556 6.24866 11.5086 6.14386C11.7616 6.03906 12.04 6.01164 12.3086 6.06507C12.5772 6.11849 12.8239 6.25036 13.0175 6.444C13.2112 6.63765 13.343 6.88436 13.3965 7.15295C13.4499 7.42154 13.4225 7.69994 13.3177 7.95294C13.2129 8.20595 13.0354 8.4222 12.8077 8.57434C12.58 8.72649 12.3123 8.80769 12.0385 8.80769C11.6712 8.80769 11.3191 8.66181 11.0594 8.40215C10.7997 8.14248 10.6538 7.7903 10.6538 7.42308Z" fill="white"/>
</g>
<defs>
<clipPath id="clip0_830_38288">
<rect width="25" height="25" rx="4" fill="white"/>
</clipPath>
</defs>
</svg>
