<svg width="25" height="25" viewBox="0 0 25 25" fill="none" xmlns="http://www.w3.org/2000/svg">
<path d="M21.5 6.5C20.05 6.5 19.24 7.94 19.57 9.01L16.02 12.57C15.72 12.48 15.28 12.48 14.98 12.57L12.43 10.02C12.77 8.95 11.96 7.5 10.5 7.5C9.05 7.5 8.23 8.94 8.57 10.02L4.01 14.57C2.94 14.24 1.5 15.05 1.5 16.5C1.5 17.6 2.4 18.5 3.5 18.5C4.95 18.5 5.76 17.06 5.43 15.99L9.98 11.43C10.28 11.52 10.72 11.52 11.02 11.43L13.57 13.98C13.23 15.05 14.04 16.5 15.5 16.5C16.95 16.5 17.77 15.06 17.43 13.98L20.99 10.43C22.06 10.76 23.5 9.95 23.5 8.5C23.5 7.4 22.6 6.5 21.5 6.5Z" fill="white"/>
</svg>
