<svg width="25" height="25" viewBox="0 0 25 25" fill="none" xmlns="http://www.w3.org/2000/svg">
<path d="M23.3024 6.54388C23.2493 6.42281 23.1652 6.31542 23.0573 6.23093C22.9494 6.14644 22.8209 6.08738 22.6828 6.05879C22.5447 6.03021 22.4011 6.03296 22.2645 6.06681C22.1278 6.10067 22.002 6.16461 21.898 6.25316L17.4902 10.0072L15.6057 9.63375L15.201 7.8945L19.2686 3.82649C19.3646 3.73048 19.4339 3.61443 19.4706 3.48829C19.5072 3.36215 19.5102 3.22967 19.4793 3.10223C19.4483 2.97479 19.3843 2.85619 19.2927 2.75659C19.2012 2.65699 19.0848 2.57936 18.9536 2.53038C17.7581 2.08404 16.4621 1.91552 15.1795 2.03961C13.8968 2.16371 12.6669 2.57662 11.5976 3.24208C10.5284 3.90754 9.65256 4.80517 9.04715 5.8561C8.44174 6.90704 8.12526 8.07911 8.12552 9.26934C8.1241 10.2744 8.34751 11.2689 8.78177 12.1906L2.1963 17.4457C2.17989 17.4579 2.16458 17.472 2.14927 17.4851C1.49281 18.091 1.12402 18.9127 1.12402 19.7695C1.12402 20.1937 1.21456 20.6138 1.39048 21.0057C1.56639 21.3977 1.82422 21.7538 2.14927 22.0538C2.47431 22.3538 2.86019 22.5917 3.28488 22.7541C3.70957 22.9164 4.16474 23 4.62442 23C5.55279 23 6.44313 22.6596 7.09958 22.0538C7.1138 22.0407 7.12911 22.0255 7.14224 22.0114L12.8352 15.9316C14.0344 16.4174 15.346 16.6196 16.6512 16.5197C17.9564 16.4198 19.214 16.0211 20.3101 15.3596C21.4063 14.6982 22.3064 13.7948 22.9289 12.7314C23.5515 11.668 23.8768 10.4781 23.8755 9.26934C23.8772 8.3352 23.6826 7.40962 23.3024 6.54388ZM16.0005 14.9222C14.9648 14.9208 13.9463 14.6778 13.0397 14.2156C12.8641 14.126 12.6605 14.0949 12.4629 14.1274C12.2654 14.16 12.086 14.2541 11.9547 14.3942L5.84067 20.9293C5.50981 21.2194 5.06925 21.3787 4.61292 21.3733C4.15659 21.3679 3.72059 21.1982 3.39789 20.9004C3.07518 20.6026 2.89131 20.2002 2.88547 19.7791C2.87962 19.3579 3.05228 18.9513 3.36661 18.646L10.4421 13.0042C10.5941 12.8831 10.6964 12.7173 10.7316 12.5348C10.7669 12.3522 10.733 12.1641 10.6357 12.0019C10.0779 11.0708 9.81613 10.0134 9.88047 8.95115C9.94482 7.88892 10.3327 6.865 10.9994 5.99712C11.6662 5.12924 12.5848 4.45263 13.6496 4.04508C14.7144 3.63753 15.8822 3.51557 17.0188 3.69324L13.6063 7.10613C13.5113 7.20119 13.4425 7.3159 13.4056 7.44062C13.3687 7.56534 13.3647 7.69641 13.3941 7.82283L14.0132 10.4807C14.0486 10.6327 14.1308 10.772 14.2499 10.882C14.369 10.9919 14.52 11.0678 14.6847 11.1005L17.5668 11.6718C17.7037 11.6989 17.8458 11.6953 17.9809 11.6612C18.116 11.6271 18.2403 11.5636 18.3433 11.476L22.0413 8.32653C22.1887 9.13712 22.1431 9.96761 21.9075 10.7602C21.6719 11.5529 21.252 12.2887 20.6771 12.9164C20.1022 13.5441 19.386 14.0487 18.5784 14.3951C17.7708 14.7415 16.8911 14.9213 16.0005 14.9222Z" fill="white"/>
</svg>
