<svg width="25" height="25" viewBox="0 0 25 25" fill="none" xmlns="http://www.w3.org/2000/svg">
<g clip-path="url(#clip0_830_38289)">
<path d="M12.4983 6.99454C11.4097 6.99454 10.3457 7.31733 9.44057 7.92209C8.53548 8.52685 7.83005 9.38641 7.41349 10.3921C6.99692 11.3978 6.88793 12.5044 7.10029 13.572C7.31265 14.6396 7.83684 15.6203 8.60655 16.39C9.37626 17.1597 10.3569 17.6839 11.4246 17.8963C12.4922 18.1086 13.5988 17.9996 14.6045 17.5831C15.6101 17.1665 16.4697 16.4611 17.0745 15.556C17.6792 14.6509 18.002 13.5868 18.002 12.4983C18.0005 11.0391 17.4202 9.64005 16.3883 8.60822C15.3565 7.5764 13.9575 6.99606 12.4983 6.99454ZM12.4983 16.1674C11.7726 16.1674 11.0632 15.9522 10.4598 15.5491C9.85641 15.1459 9.38613 14.5729 9.10842 13.9024C8.83071 13.232 8.75805 12.4942 8.89962 11.7825C9.0412 11.0707 9.39065 10.4169 9.90379 9.90379C10.4169 9.39065 11.0707 9.0412 11.7825 8.89962C12.4942 8.75805 13.232 8.83071 13.9024 9.10842C14.5729 9.38613 15.1459 9.85641 15.5491 10.4598C15.9522 11.0632 16.1674 11.7726 16.1674 12.4983C16.1674 13.4714 15.7809 14.4047 15.0928 15.0928C14.4047 15.7809 13.4714 16.1674 12.4983 16.1674ZM22.5885 12.7459C22.5931 12.5808 22.5931 12.4157 22.5885 12.2506L24.2992 10.1133C24.3889 10.0011 24.451 9.86939 24.4805 9.72878C24.51 9.58818 24.506 9.44261 24.4689 9.30382C24.1885 8.24962 23.7689 7.23745 23.2214 6.29396C23.1497 6.17049 23.0502 6.06546 22.9307 5.98723C22.8113 5.909 22.6753 5.85973 22.5334 5.84334L19.8137 5.54063C19.7005 5.42139 19.5859 5.30673 19.4697 5.19665L19.1486 2.47C19.1321 2.32807 19.0827 2.19195 19.0042 2.07251C18.9258 1.95307 18.8206 1.8536 18.6969 1.78204C17.753 1.2355 16.7409 0.816399 15.687 0.535669C15.5481 0.498745 15.4025 0.494968 15.2619 0.524644C15.1213 0.554319 14.9896 0.616617 14.8775 0.706514L12.7459 2.40809C12.5808 2.40809 12.4157 2.40809 12.2506 2.40809L10.1133 0.700781C10.0011 0.61108 9.86939 0.54899 9.72878 0.519515C9.58818 0.490039 9.44261 0.494001 9.30382 0.531082C8.24979 0.812034 7.23768 1.23153 6.29396 1.7786C6.17049 1.85029 6.06546 1.94982 5.98723 2.06925C5.909 2.18869 5.85973 2.32473 5.84334 2.46656L5.54063 5.19092C5.42139 5.30481 5.30673 5.41947 5.19665 5.5349L2.47 5.84793C2.32807 5.86444 2.19195 5.91388 2.07251 5.99232C1.95307 6.07075 1.8536 6.17601 1.78204 6.29969C1.2355 7.24354 0.816399 8.25563 0.535669 9.30955C0.498745 9.44843 0.494968 9.59405 0.524644 9.73466C0.554319 9.87527 0.616617 10.0069 0.706514 10.1191L2.40809 12.2506C2.40809 12.4157 2.40809 12.5808 2.40809 12.7459L0.700781 14.8832C0.61108 14.9955 0.54899 15.1272 0.519515 15.2678C0.490039 15.4084 0.494001 15.5539 0.531082 15.6927C0.811532 16.7469 1.23105 17.7591 1.7786 18.7026C1.85029 18.8261 1.94982 18.9311 2.06925 19.0093C2.18869 19.0876 2.32473 19.1368 2.46656 19.1532L5.18633 19.4559C5.30023 19.5752 5.41489 19.6898 5.53031 19.7999L5.84793 22.5266C5.86444 22.6685 5.91388 22.8046 5.99232 22.9241C6.07075 23.0435 6.17601 23.143 6.29969 23.2145C7.24354 23.7611 8.25563 24.1802 9.30955 24.4609C9.44843 24.4978 9.59405 24.5016 9.73466 24.4719C9.87527 24.4422 10.0069 24.3799 10.1191 24.29L12.2506 22.5885C12.4157 22.5931 12.5808 22.5931 12.7459 22.5885L14.8832 24.2992C14.9955 24.3889 15.1272 24.451 15.2678 24.4805C15.4084 24.51 15.5539 24.506 15.6927 24.4689C16.7469 24.1885 17.7591 23.7689 18.7026 23.2214C18.8261 23.1497 18.9311 23.0502 19.0093 22.9307C19.0876 22.8113 19.1368 22.6753 19.1532 22.5334L19.4559 19.8137C19.5752 19.7005 19.6898 19.5859 19.7999 19.4697L22.5266 19.1486C22.6685 19.1321 22.8046 19.0827 22.9241 19.0042C23.0435 18.9258 23.143 18.8206 23.2145 18.6969C23.7611 17.753 24.1802 16.7409 24.4609 15.687C24.4978 15.5481 24.5016 15.4025 24.4719 15.2619C24.4422 15.1213 24.3799 14.9896 24.29 14.8775L22.5885 12.7459ZM20.7424 12.0007C20.7619 12.3321 20.7619 12.6644 20.7424 12.9959C20.7288 13.2228 20.7999 13.4468 20.9419 13.6243L22.569 15.6572C22.3823 16.2505 22.1432 16.8261 21.8546 17.3771L19.2633 17.6707C19.0376 17.6957 18.8293 17.8036 18.6785 17.9734C18.4578 18.2216 18.2227 18.4567 17.9745 18.6774C17.8047 18.8281 17.6968 19.0365 17.6718 19.2621L17.384 21.8512C16.833 22.1399 16.2575 22.379 15.6641 22.5655L13.63 20.9385C13.4672 20.8084 13.265 20.7377 13.0567 20.7378H13.0016C12.6702 20.7573 12.3379 20.7573 12.0064 20.7378C11.7794 20.7242 11.5555 20.7953 11.378 20.9374L9.33936 22.5655C8.74603 22.3788 8.17046 22.1398 7.61944 21.8512L7.32591 19.2633C7.30086 19.0376 7.193 18.8293 7.0232 18.6785C6.77497 18.4578 6.5399 18.2227 6.31918 17.9745C6.16844 17.8047 5.96008 17.6968 5.73441 17.6718L3.14536 17.3829C2.85663 16.8319 2.61757 16.2563 2.43102 15.6629L4.05806 13.6288C4.20013 13.4514 4.27123 13.2274 4.25757 13.0005C4.23808 12.669 4.23808 12.3367 4.25757 12.0052C4.27123 11.7783 4.20013 11.5544 4.05806 11.3769L2.43102 9.33936C2.61772 8.74603 2.85677 8.17046 3.14536 7.61944L5.73326 7.32591C5.95894 7.30086 6.1673 7.193 6.31804 7.0232C6.53875 6.77497 6.77383 6.5399 7.02206 6.31918C7.19253 6.16834 7.30083 5.95951 7.32591 5.73326L7.61371 3.14536C8.16466 2.85663 8.74024 2.61757 9.33363 2.43102L11.3677 4.05806C11.5452 4.20013 11.7691 4.27123 11.9961 4.25757C12.3275 4.23808 12.6599 4.23808 12.9913 4.25757C13.2183 4.27123 13.4422 4.20013 13.6197 4.05806L15.6572 2.43102C16.2505 2.61772 16.8261 2.85677 17.3771 3.14536L17.6707 5.73326C17.6957 5.95894 17.8036 6.1673 17.9734 6.31804C18.2216 6.53875 18.4567 6.77383 18.6774 7.02206C18.8281 7.19186 19.0365 7.29971 19.2621 7.32476L21.8512 7.61256C22.1399 8.16351 22.379 8.7391 22.5655 9.33248L20.9385 11.3666C20.7951 11.5456 20.7239 11.7718 20.739 12.0007H20.7424Z" fill="white"/>
</g>
<defs>
<clipPath id="clip0_830_38289">
<rect width="25" height="25" rx="4" fill="white"/>
</clipPath>
</defs>
</svg>
