<svg width="25" height="25" viewBox="0 0 25 25" fill="none" xmlns="http://www.w3.org/2000/svg">
<path d="M10.25 4.25H5.75C5.35218 4.25 4.97064 4.40804 4.68934 4.68934C4.40804 4.97064 4.25 5.35218 4.25 5.75V10.25C4.25 10.6478 4.40804 11.0294 4.68934 11.3107C4.97064 11.592 5.35218 11.75 5.75 11.75H10.25C10.6478 11.75 11.0294 11.592 11.3107 11.3107C11.592 11.0294 11.75 10.6478 11.75 10.25V5.75C11.75 5.35218 11.592 4.97064 11.3107 4.68934C11.0294 4.40804 10.6478 4.25 10.25 4.25ZM10.25 10.25H5.75V5.75H10.25V10.25ZM19.25 4.25H14.75C14.3522 4.25 13.9706 4.40804 13.6893 4.68934C13.408 4.97064 13.25 5.35218 13.25 5.75V10.25C13.25 10.6478 13.408 11.0294 13.6893 11.3107C13.9706 11.592 14.3522 11.75 14.75 11.75H19.25C19.6478 11.75 20.0294 11.592 20.3107 11.3107C20.592 11.0294 20.75 10.6478 20.75 10.25V5.75C20.75 5.35218 20.592 4.97064 20.3107 4.68934C20.0294 4.40804 19.6478 4.25 19.25 4.25ZM19.25 10.25H14.75V5.75H19.25V10.25ZM10.25 13.25H5.75C5.35218 13.25 4.97064 13.408 4.68934 13.6893C4.40804 13.9706 4.25 14.3522 4.25 14.75V19.25C4.25 19.6478 4.40804 20.0294 4.68934 20.3107C4.97064 20.592 5.35218 20.75 5.75 20.75H10.25C10.6478 20.75 11.0294 20.592 11.3107 20.3107C11.592 20.0294 11.75 19.6478 11.75 19.25V14.75C11.75 14.3522 11.592 13.9706 11.3107 13.6893C11.0294 13.408 10.6478 13.25 10.25 13.25ZM10.25 19.25H5.75V14.75H10.25V19.25ZM19.25 13.25H14.75C14.3522 13.25 13.9706 13.408 13.6893 13.6893C13.408 13.9706 13.25 14.3522 13.25 14.75V19.25C13.25 19.6478 13.408 20.0294 13.6893 20.3107C13.9706 20.592 14.3522 20.75 14.75 20.75H19.25C19.6478 20.75 20.0294 20.592 20.3107 20.3107C20.592 20.0294 20.75 19.6478 20.75 19.25V14.75C20.75 14.3522 20.592 13.9706 20.3107 13.6893C20.0294 13.408 19.6478 13.25 19.25 13.25ZM19.25 19.25H14.75V14.75H19.25V19.25Z" fill="white"/>
</svg>
