<svg width="25" height="25" viewBox="0 0 25 25" fill="none" xmlns="http://www.w3.org/2000/svg">
<path d="M11.685 3.12963V2.31481C11.685 2.09871 11.7709 1.89146 11.9237 1.73865C12.0765 1.58585 12.2837 1.5 12.4998 1.5C12.7159 1.5 12.9232 1.58585 13.076 1.73865C13.2288 1.89146 13.3146 2.09871 13.3146 2.31481V3.12963C13.3146 3.34573 13.2288 3.55298 13.076 3.70579C12.9232 3.8586 12.7159 3.94444 12.4998 3.94444C12.2837 3.94444 12.0765 3.8586 11.9237 3.70579C11.7709 3.55298 11.685 3.34573 11.685 3.12963ZM19.8332 6.38889C19.9402 6.38897 20.0462 6.36797 20.1451 6.32707C20.244 6.28618 20.3339 6.2262 20.4096 6.15056L21.2244 5.33574C21.3773 5.18285 21.4632 4.97548 21.4632 4.75926C21.4632 4.54304 21.3773 4.33567 21.2244 4.18278C21.0716 4.02989 20.8642 3.94399 20.648 3.94399C20.4317 3.94399 20.2244 4.02989 20.0715 4.18278L19.2567 4.99759C19.1426 5.11155 19.0649 5.25679 19.0334 5.41494C19.0019 5.57308 19.018 5.73701 19.0798 5.88598C19.1415 6.03494 19.246 6.16225 19.3801 6.25177C19.5142 6.3413 19.6719 6.38902 19.8332 6.38889ZM4.59 6.15056C4.66571 6.22626 4.75558 6.28631 4.8545 6.32728C4.95341 6.36825 5.05942 6.38934 5.16649 6.38934C5.27355 6.38934 5.37956 6.36825 5.47848 6.32728C5.57739 6.28631 5.66726 6.22626 5.74297 6.15056C5.81867 6.07485 5.87872 5.98498 5.91969 5.88606C5.96067 5.78715 5.98175 5.68114 5.98175 5.57407C5.98175 5.46701 5.96067 5.361 5.91969 5.26208C5.87872 5.16317 5.81867 5.0733 5.74297 4.99759L4.92815 4.18278C4.77526 4.02989 4.56789 3.94399 4.35167 3.94399C4.13545 3.94399 3.92808 4.02989 3.77519 4.18278C3.6223 4.33567 3.5364 4.54304 3.5364 4.75926C3.5364 4.97548 3.6223 5.18285 3.77519 5.33574L4.59 6.15056ZM13.4511 8.84454C13.3451 8.82579 13.2365 8.82823 13.1314 8.85172C13.0264 8.87521 12.927 8.91928 12.8391 8.98138C12.7512 9.04348 12.6765 9.12239 12.6192 9.21354C12.562 9.3047 12.5233 9.40629 12.5056 9.51245C12.4878 9.61862 12.4913 9.72725 12.5157 9.83207C12.5402 9.93689 12.5852 10.0358 12.6481 10.1232C12.711 10.2105 12.7906 10.2845 12.8823 10.3409C12.974 10.3973 13.0759 10.435 13.1822 10.4518C15.1144 10.7767 16.5739 12.5326 16.5739 14.537C16.5739 14.7531 16.6597 14.9604 16.8125 15.1132C16.9654 15.266 17.1726 15.3519 17.3887 15.3519C17.6048 15.3519 17.8121 15.266 17.9649 15.1132C18.1177 14.9604 18.2035 14.7531 18.2035 14.537C18.2035 11.7463 16.1594 9.2988 13.4491 8.84454H13.4511ZM23.0924 19.4259V21.8704C23.0924 22.3026 22.9207 22.7171 22.6151 23.0227C22.3095 23.3283 21.895 23.5 21.4628 23.5H3.53686C3.10465 23.5 2.69015 23.3283 2.38453 23.0227C2.07892 22.7171 1.90723 22.3026 1.90723 21.8704V19.4259C1.90723 18.9937 2.07892 18.5792 2.38453 18.2736C2.69015 17.968 3.10465 17.7963 3.53686 17.7963V14.537C3.53682 13.3542 3.7709 12.1831 4.22559 11.0912C4.68028 9.99932 5.3466 9.0082 6.18613 8.17502C7.02566 7.34183 8.0218 6.68305 9.11712 6.23665C10.2124 5.79026 11.3853 5.56507 12.5681 5.57407C17.4722 5.61074 21.4628 9.67768 21.4628 14.6389V17.7963C21.895 17.7963 22.3095 17.968 22.6151 18.2736C22.9207 18.5792 23.0924 18.9937 23.0924 19.4259ZM5.16649 17.7963H19.8332V14.6389C19.8332 10.5648 16.5688 7.23324 12.5558 7.2037H12.4998C10.5549 7.2037 8.68964 7.97632 7.31437 9.35159C5.9391 10.7269 5.16649 12.5921 5.16649 14.537V17.7963ZM21.4628 21.8704V19.4259H3.53686V21.8704H21.4628Z" fill="#0C59D8"/>
</svg>
