<svg width="50" height="42" viewBox="0 0 50 42" fill="none" xmlns="http://www.w3.org/2000/svg">
<path d="M48.0476 8.60292C46.7453 7.37905 45.1745 6.76695 43.3341 6.76695H37.5008L36.1729 3.43799C35.8429 2.63846 35.2398 1.94884 34.3626 1.36924C33.4858 0.789889 32.5875 0.5 31.6672 0.5H18.3335C17.4134 0.5 16.5148 0.789889 15.638 1.36924C14.7612 1.94884 14.1581 2.63846 13.8281 3.43799L12.5001 6.76695H6.6667C4.8261 6.76695 3.25522 7.37905 1.95297 8.60292C0.65099 9.82686 0 11.3037 0 13.0336V34.9672C0 36.6973 0.65099 38.1743 1.95297 39.3979C3.25522 40.622 4.82619 41.2341 6.6667 41.2341H43.3335C45.1739 41.2341 46.7446 40.622 48.0469 39.3979C49.3488 38.1743 50 36.6973 50 34.9672V13.0336C50.0004 11.3037 49.3492 9.82686 48.0476 8.60292ZM33.2424 31.7484C30.9594 33.8945 28.2122 34.9678 25.0001 34.9678C21.7881 34.9678 19.0411 33.8945 16.7579 31.7484C14.4747 29.6027 13.3334 27.0197 13.3334 24.0011C13.3334 20.9815 14.4751 18.3994 16.7579 16.2532C19.0408 14.107 21.7881 13.0342 25.0001 13.0342C28.2121 13.0342 30.9594 14.1073 33.2424 16.2532C35.5254 18.3991 36.667 20.9815 36.667 24.0011C36.667 27.0197 35.5255 29.6024 33.2424 31.7484Z" fill="#CBCBCB"/>
<path d="M25.0003 16.9512C22.9342 16.9512 21.1677 17.6407 19.7006 19.0199C18.2335 20.399 17.5 22.0592 17.5 24.0018C17.5 25.9435 18.2335 27.6041 19.7006 28.9831C21.1677 30.3619 22.9341 31.0514 25.0003 31.0514C27.0661 31.0514 28.8328 30.3619 30.2999 28.9831C31.767 27.6041 32.5006 25.9436 32.5006 24.0018C32.5006 22.0593 31.767 20.3991 30.2999 19.0199C28.8329 17.6408 27.0661 16.9512 25.0003 16.9512Z" fill="#CBCBCB"/>
</svg>
