<svg width="112" height="112" viewBox="0 0 112 112" fill="none" xmlns="http://www.w3.org/2000/svg">
<path d="M2.125 80.4886L30.8043 51.8094C31.1948 51.4189 31.8279 51.4189 32.2185 51.8094L90.2841 109.875M90.2841 36.4091C90.2841 44.5239 83.7057 51.1023 75.5909 51.1023C67.4761 51.1023 60.8977 44.5239 60.8977 36.4091C60.8977 28.2943 67.4761 21.7159 75.5909 21.7159C83.7057 21.7159 90.2841 28.2943 90.2841 36.4091ZM109.875 4.125V107.875C109.875 108.98 108.98 109.875 107.875 109.875H4.125C3.02043 109.875 2.125 108.98 2.125 107.875V4.125C2.125 3.02043 3.02043 2.125 4.125 2.125H107.875C108.98 2.125 109.875 3.02043 109.875 4.125Z" stroke="#6980A5" stroke-width="4"/>
</svg>
