<svg width="144" height="42" viewBox="0 0 144 42" fill="none" xmlns="http://www.w3.org/2000/svg">
<g opacity="0.5">
<path d="M34.2986 0.00212299H24.5446C23.4966 -0.0240855 22.4568 0.192672 21.5066 0.635418C20.5564 1.07816 19.7216 1.73488 19.0676 2.55412C18.1359 3.73901 17.3383 5.02352 16.6896 6.38412C16.2115 7.35664 15.6682 8.29577 15.0636 9.19512C13.1786 11.8461 11.2986 12.2381 10.9986 12.2861H7.65161C6.37783 12.3058 5.14456 11.8386 4.20361 10.9798C3.26267 10.121 2.68502 8.9354 2.58861 7.66512C2.56003 7.00234 2.66634 6.34066 2.90108 5.72018C3.13583 5.0997 3.49412 4.53336 3.95425 4.05546C4.41437 3.57757 4.96675 3.19809 5.57789 2.94002C6.18904 2.68195 6.84622 2.55066 7.50961 2.55412H12.7326C12.9012 2.55518 13.0684 2.52301 13.2246 2.45945C13.3808 2.3959 13.5229 2.3022 13.6429 2.18371C13.7629 2.06522 13.8583 1.92426 13.9238 1.76888C13.9893 1.6135 14.0236 1.44674 14.0246 1.27812C14.0236 1.10942 13.9893 0.942577 13.9237 0.78713C13.8582 0.631683 13.7626 0.490679 13.6425 0.372178C13.5225 0.253677 13.3802 0.160001 13.2239 0.096505C13.0676 0.0330089 12.9003 0.000937217 12.7316 0.00212299H7.69861C5.74459 -0.0279666 3.85422 0.696602 2.42092 2.02504C0.98762 3.35347 0.121785 5.18345 0.00360817 7.13412C-0.0275865 8.13731 0.143754 9.13648 0.507391 10.072C0.871029 11.0074 1.4195 11.86 2.12004 12.5788C2.82058 13.2975 3.65882 13.8677 4.58466 14.2552C5.5105 14.6427 6.50496 14.8396 7.50861 14.8341H11.1746C12.3437 14.6722 13.4519 14.2137 14.3936 13.5021C14.9048 13.1415 15.3827 12.7359 15.8216 12.2901C16.3173 11.7851 16.7711 11.2406 17.1786 10.6621C17.8505 9.66835 18.4546 8.63032 18.9866 7.55512C20.6066 4.45512 21.7416 2.55512 24.5446 2.55512H34.3446C35.6184 2.53514 36.8518 3.00214 37.7929 3.86075C38.734 4.71937 39.3119 5.90485 39.4086 7.17512C39.4372 7.8379 39.3309 8.49959 39.0961 9.12006C38.8614 9.74054 38.5031 10.3069 38.043 10.7848C37.5828 11.2627 37.0305 11.6422 36.4193 11.9002C35.8082 12.1583 35.151 12.2896 34.4876 12.2861H30.1876H30.1206C29.2401 12.2773 28.3724 12.4975 27.6026 12.9251C26.8277 13.3801 26.1956 14.0427 25.7776 14.8381C25.3237 15.6849 25.065 16.6224 25.0206 17.5821V35.5481C24.9972 36.5956 24.5647 37.5923 23.8156 38.3249C23.0665 39.0574 22.0604 39.4676 21.0126 39.4676C19.9649 39.4676 18.9587 39.0574 18.2097 38.3249C17.4606 37.5923 17.028 36.5956 17.0046 35.5481V25.9311C16.9952 25.5911 16.8535 25.2682 16.6097 25.0311C16.3659 24.7939 16.0392 24.6613 15.6991 24.6613C15.359 24.6613 15.0323 24.7939 14.7885 25.0311C14.5447 25.2682 14.403 25.5911 14.3936 25.9311V35.5471C14.4336 37.2708 15.1459 38.9106 16.3783 40.1164C17.6107 41.3222 19.2656 41.9985 20.9898 42.0008C22.714 42.0032 24.3708 41.3314 25.6065 40.129C26.8422 38.9266 27.5589 37.2887 27.6036 35.5651C27.6036 35.5591 27.6036 35.5531 27.6036 35.5471V17.6671C27.6136 17.3781 27.7696 14.8591 30.1606 14.8371H34.4866C35.4903 14.8427 36.4849 14.6459 37.4109 14.2585C38.3368 13.871 39.1752 13.3009 39.8758 12.5821C40.5765 11.8634 41.125 11.0107 41.4887 10.0752C41.8524 9.13965 42.0238 8.14039 41.9926 7.13712C41.8752 5.18609 41.0098 3.35551 39.5766 2.02647C38.1435 0.697431 36.2529 -0.0276676 34.2986 0.00212299Z" fill="#635954"/>
<path d="M15.3857 22.4336C15.4016 22.5059 15.4346 22.5733 15.4819 22.6302C15.5292 22.6871 15.5895 22.7318 15.6576 22.7606H15.8147C15.8828 22.7357 15.9434 22.6937 15.9908 22.6388C16.0383 22.5838 16.0709 22.5177 16.0857 22.4466C16.1237 22.3076 16.1746 22.1716 16.2216 22.0346C16.3828 21.53 16.6529 21.067 17.0129 20.6784C17.3728 20.2897 17.8138 19.9849 18.3046 19.7856C18.5426 19.6856 18.7937 19.6146 19.0387 19.5276C19.113 19.5106 19.1794 19.4688 19.227 19.4092C19.2745 19.3495 19.3004 19.2755 19.3004 19.1991C19.3004 19.1228 19.2745 19.0488 19.227 18.9891C19.1794 18.9294 19.113 18.8877 19.0387 18.8706C18.8917 18.8186 18.7386 18.7706 18.5956 18.7216C18.1308 18.5781 17.7002 18.3408 17.3304 18.0246C16.9607 17.7083 16.6596 17.3197 16.4457 16.8826C16.3026 16.5609 16.1767 16.2318 16.0686 15.8966C16.0506 15.8239 16.0089 15.7593 15.9501 15.7129C15.8912 15.6665 15.8186 15.6411 15.7437 15.6406C15.6686 15.6398 15.5955 15.6643 15.5361 15.7103C15.4768 15.7562 15.4347 15.8208 15.4167 15.8936C15.3627 16.0516 15.3167 16.2106 15.2587 16.3696C15.1112 16.8345 14.8704 17.2644 14.5509 17.6329C14.2314 18.0014 13.84 18.3008 13.4007 18.5126C13.0849 18.6514 12.7621 18.7736 12.4337 18.8786C12.3602 18.896 12.2948 18.9377 12.248 18.9968C12.2012 19.056 12.1758 19.1292 12.1758 19.2046C12.1758 19.2801 12.2012 19.3533 12.248 19.4125C12.2948 19.4716 12.3602 19.5133 12.4337 19.5306C12.5917 19.5856 12.7507 19.6366 12.9097 19.6896C13.7082 19.9505 14.3928 20.478 14.8487 21.1836C15.0863 21.5742 15.2668 21.9969 15.3847 22.4386" fill="#635954"/>
<path d="M64.5981 10.7793H49.9981C49.7409 10.7675 49.4839 10.808 49.2428 10.8983C49.0016 10.9887 48.7812 11.1269 48.595 11.3048C48.4088 11.4827 48.2606 11.6964 48.1593 11.9332C48.0581 12.17 48.0059 12.4248 48.0059 12.6823C48.0059 12.9399 48.0581 13.1947 48.1593 13.4315C48.2606 13.6682 48.4088 13.882 48.595 14.0599C48.7812 14.2378 49.0016 14.376 49.2428 14.4663C49.4839 14.5567 49.7409 14.5971 49.9981 14.5853H55.2981V29.2353C55.2981 29.7658 55.5088 30.2745 55.8839 30.6496C56.259 31.0246 56.7677 31.2353 57.2981 31.2353C57.8286 31.2353 58.3373 31.0246 58.7123 30.6496C59.0874 30.2745 59.2981 29.7658 59.2981 29.2353V14.5853H64.5981C64.8554 14.5971 65.1123 14.5567 65.3535 14.4663C65.5947 14.376 65.815 14.2378 66.0012 14.0599C66.1874 13.882 66.3357 13.6682 66.4369 13.4315C66.5382 13.1947 66.5904 12.9399 66.5904 12.6823C66.5904 12.4248 66.5382 12.17 66.4369 11.9332C66.3357 11.6964 66.1874 11.4827 66.0012 11.3048C65.815 11.1269 65.5947 10.9887 65.3535 10.8983C65.1123 10.808 64.8554 10.7675 64.5981 10.7793Z" fill="#635954"/>
<path d="M69.8135 10.7779C69.2966 10.7655 68.7958 10.9586 68.4209 11.3147C68.0461 11.6708 67.8276 12.161 67.8135 12.6779V29.2339C67.8135 29.7643 68.0242 30.273 68.3993 30.6481C68.7743 31.0232 69.283 31.2339 69.8135 31.2339C70.3439 31.2339 70.8526 31.0232 71.2277 30.6481C71.6028 30.273 71.8135 29.7643 71.8135 29.2339V12.6809C71.7993 12.164 71.5809 11.6738 71.206 11.3177C70.8311 10.9616 70.3304 10.7685 69.8135 10.7809" fill="#635954"/>
<path d="M84.7714 14.3079C86.575 14.2983 88.3165 14.966 89.6514 16.1789C90.0421 16.5298 90.5512 16.7195 91.0762 16.7099C91.6012 16.7002 92.103 16.4919 92.4805 16.1269C92.6617 15.9512 92.8047 15.74 92.9007 15.5065C92.9967 15.2731 93.0436 15.0223 93.0384 14.7699C93.0333 14.5176 92.9762 14.269 92.8707 14.0396C92.7653 13.8103 92.6137 13.6051 92.4255 13.4369C90.3317 11.5347 87.6002 10.4877 84.7714 10.5029C81.9165 10.4365 79.1517 11.5043 77.0824 13.4723C75.0132 15.4404 73.8082 18.1483 73.7314 21.0029C73.8082 23.8576 75.0132 26.5655 77.0824 28.5335C79.1517 30.5015 81.9165 31.5693 84.7714 31.5029C87.5529 31.5164 90.2418 30.5046 92.3244 28.6609C92.6122 28.398 92.8118 28.0527 92.8961 27.6722C92.9804 27.2917 92.9452 26.8944 92.7954 26.5346C92.6455 26.1748 92.3883 25.8699 92.0589 25.6617C91.7294 25.4534 91.3437 25.3519 90.9545 25.3709C90.4503 25.3685 89.963 25.5518 89.5855 25.8859C88.2578 27.0612 86.5436 27.7059 84.7705 27.6969C82.9502 27.7397 81.1872 27.0591 79.8678 25.8044C78.5484 24.5496 77.7802 22.823 77.7314 21.0029C77.7802 19.1827 78.5484 17.456 79.8677 16.2011C81.1871 14.9462 82.9511 14.2655 84.7714 14.3079Z" fill="#635954"/>
<path d="M104.174 19.7458L109.998 14.0008C110.18 13.8253 110.323 13.6143 110.42 13.381C110.516 13.1476 110.563 12.8969 110.558 12.6445C110.553 12.392 110.496 12.1433 110.391 11.9139C110.286 11.6844 110.134 11.4791 109.946 11.3108C109.556 10.9594 109.047 10.769 108.523 10.7781C107.998 10.7872 107.496 10.9951 107.118 11.3598L98.2822 20.0758V12.6758C98.2822 12.1453 98.0715 11.6366 97.6964 11.2616C97.3214 10.8865 96.8127 10.6758 96.2822 10.6758C95.7518 10.6758 95.2431 10.8865 94.868 11.2616C94.4929 11.6366 94.2822 12.1453 94.2822 12.6758V29.2328C94.2822 29.7632 94.4929 30.2719 94.868 30.647C95.2431 31.0221 95.7518 31.2328 96.2822 31.2328C96.8127 31.2328 97.3214 31.0221 97.6964 30.647C98.0715 30.2719 98.2822 29.7632 98.2822 29.2328V25.5548L101.382 22.5008L108.23 30.4378C108.579 30.8301 109.063 31.0755 109.586 31.1245C110.108 31.1735 110.63 31.0224 111.045 30.7018C111.247 30.5495 111.415 30.3574 111.539 30.1374C111.663 29.9174 111.74 29.6743 111.766 29.423C111.792 29.1718 111.766 28.9179 111.69 28.6772C111.613 28.4365 111.488 28.2141 111.322 28.0238L104.174 19.7458Z" fill="#635954"/>
<path d="M125.487 27.3307H117.188V12.6797C117.188 12.1493 116.977 11.6405 116.602 11.2655C116.227 10.8904 115.718 10.6797 115.188 10.6797C114.657 10.6797 114.148 10.8904 113.773 11.2655C113.398 11.6405 113.188 12.1493 113.188 12.6797V29.2337C113.202 29.7506 113.42 30.2408 113.795 30.5969C114.17 30.953 114.671 31.1461 115.188 31.1337H125.487C125.745 31.1455 126.002 31.105 126.243 31.0147C126.484 30.9244 126.704 30.7861 126.891 30.6082C127.077 30.4304 127.225 30.2166 127.326 29.9798C127.428 29.743 127.48 29.4882 127.48 29.2307C127.48 28.9732 127.428 28.7183 127.326 28.4816C127.225 28.2448 127.077 28.031 126.891 27.8531C126.704 27.6753 126.484 27.537 126.243 27.4467C126.002 27.3564 125.745 27.3159 125.487 27.3277" fill="#635954"/>
<path d="M141.997 27.3323H132.397V22.8613H140.297C140.555 22.8731 140.812 22.8327 141.053 22.7423C141.294 22.652 141.514 22.5138 141.701 22.3359C141.887 22.158 142.035 21.9442 142.136 21.7075C142.238 21.4707 142.29 21.2159 142.29 20.9583C142.29 20.7008 142.238 20.446 142.136 20.2092C142.035 19.9724 141.887 19.7587 141.701 19.5808C141.514 19.4029 141.294 19.2647 141.053 19.1743C140.812 19.084 140.555 19.0435 140.297 19.0553H132.397V14.5853H141.997C142.255 14.5971 142.512 14.5567 142.753 14.4663C142.994 14.376 143.214 14.2378 143.401 14.0599C143.587 13.882 143.735 13.6682 143.836 13.4315C143.938 13.1947 143.99 12.9399 143.99 12.6823C143.99 12.4248 143.938 12.17 143.836 11.9332C143.735 11.6964 143.587 11.4827 143.401 11.3048C143.214 11.1269 142.994 10.9887 142.753 10.8983C142.512 10.808 142.255 10.7675 141.997 10.7793H130.397C129.88 10.7667 129.38 10.9596 129.005 11.3158C128.63 11.672 128.411 12.1624 128.397 12.6793V29.2353C128.411 29.7523 128.63 30.2427 129.005 30.5989C129.38 30.955 129.88 31.148 130.397 31.1353H141.997C142.255 31.1471 142.512 31.1067 142.753 31.0163C142.994 30.926 143.214 30.7878 143.401 30.6099C143.587 30.432 143.735 30.2182 143.836 29.9815C143.938 29.7447 143.99 29.4899 143.99 29.2323C143.99 28.9748 143.938 28.72 143.836 28.4832C143.735 28.2464 143.587 28.0327 143.401 27.8548C143.214 27.6769 142.994 27.5387 142.753 27.4483C142.512 27.358 142.255 27.3175 141.997 27.3293" fill="#635954"/>
</g>
</svg>
