<svg width="44" height="44" viewBox="0 0 44 44" fill="none" xmlns="http://www.w3.org/2000/svg">
<path d="M35.1837 0.00217777H25.178C24.103 -0.0247071 23.0364 0.197644 22.0616 0.651815C21.0869 1.10599 20.2306 1.77965 19.5597 2.62004C18.6039 3.8355 17.7858 5.15316 17.1203 6.54887C16.6298 7.54649 16.0726 8.50986 15.4523 9.43242C13.5187 12.1518 11.5902 12.5539 11.2824 12.6032H7.84907C6.54241 12.6234 5.27732 12.1441 4.31209 11.2631C3.34687 10.3822 2.75431 9.166 2.65541 7.86293C2.6261 7.18305 2.73515 6.50429 2.97595 5.8678C3.21675 5.23131 3.58429 4.65035 4.05629 4.16012C4.52829 3.6699 5.09492 3.28062 5.72184 3.01589C6.34875 2.75116 7.0229 2.61649 7.7034 2.62004H13.0612C13.2342 2.62112 13.4056 2.58812 13.5659 2.52292C13.7261 2.45773 13.8719 2.36161 13.995 2.24007C14.118 2.11852 14.216 1.97392 14.2831 1.81453C14.3503 1.65514 14.3855 1.48408 14.3865 1.31111C14.3855 1.13805 14.3503 0.966902 14.283 0.807443C14.2158 0.647985 14.1178 0.503342 13.9946 0.381783C13.8714 0.260223 13.7255 0.16413 13.5652 0.0989955C13.4048 0.0338608 13.2332 0.000961403 13.0602 0.00217777H7.89728C5.89284 -0.0286883 3.95369 0.714579 2.4834 2.0773C1.01311 3.44001 0.124928 5.31721 0.00370128 7.31823C-0.0282984 8.3473 0.147463 9.37226 0.520485 10.3319C0.893507 11.2915 1.45614 12.1661 2.17475 12.9034C2.89337 13.6407 3.75324 14.2255 4.70297 14.623C5.65271 15.0205 6.67283 15.2225 7.70238 15.2169H11.463C12.6623 15.0509 13.7991 14.5805 14.7651 13.8506C15.2895 13.4807 15.7797 13.0646 16.2299 12.6073C16.7383 12.0892 17.2039 11.5307 17.6219 10.9373C18.3112 9.91785 18.9308 8.85303 19.4766 7.75009C21.1384 4.57009 22.3027 2.62106 25.178 2.62106H35.2309C36.5376 2.60057 37.8028 3.07961 38.7682 3.96039C39.7336 4.84116 40.3264 6.05723 40.4256 7.36029C40.4549 8.04017 40.3459 8.71893 40.1051 9.35542C39.8643 9.99191 39.4967 10.5729 39.0247 11.0631C38.5527 11.5533 37.9861 11.9426 37.3592 12.2073C36.7323 12.4721 36.0581 12.6067 35.3776 12.6032H30.9666H30.8979C29.9947 12.5942 29.1046 12.82 28.3149 13.2587C27.5201 13.7253 26.8716 14.4051 26.4428 15.221C25.9772 16.0896 25.7119 17.0514 25.6663 18.0359V36.4655C25.6423 37.54 25.1986 38.5624 24.4302 39.3139C23.6617 40.0653 22.6297 40.4861 21.5549 40.4861C20.4801 40.4861 19.448 40.0653 18.6796 39.3139C17.9111 38.5624 17.4674 37.54 17.4434 36.4655V26.6003C17.4338 26.2516 17.2885 25.9203 17.0384 25.6771C16.7883 25.4338 16.4531 25.2977 16.1042 25.2977C15.7554 25.2977 15.4202 25.4338 15.1701 25.6771C14.92 25.9203 14.7747 26.2516 14.7651 26.6003V36.4645C14.8061 38.2327 15.5367 39.9148 16.8009 41.1517C18.0652 42.3886 19.7628 43.0823 21.5315 43.0847C23.3002 43.0871 24.9997 42.398 26.2673 41.1646C27.5349 39.9311 28.2701 38.251 28.316 36.4829C28.316 36.4768 28.316 36.4706 28.316 36.4645V18.123C28.3262 17.8266 28.4862 15.2426 30.9389 15.22H35.3766C36.4062 15.2258 37.4265 15.0239 38.3763 14.6264C39.3262 14.229 40.1861 13.6441 40.9049 12.9068C41.6236 12.1695 42.1863 11.2949 42.5594 10.3352C42.9325 9.37551 43.1083 8.35046 43.0763 7.32131C42.9558 5.31992 42.0681 3.44211 40.598 2.07877C39.1278 0.71543 37.1885 -0.0283816 35.1837 0.00217777Z" fill="#F5F9FF"/>
<path d="M15.782 23.0113C15.7983 23.0854 15.8321 23.1546 15.8807 23.213C15.9292 23.2713 15.9911 23.3172 16.061 23.3467H16.222C16.2919 23.3211 16.3541 23.2781 16.4028 23.2217C16.4514 23.1653 16.4849 23.0975 16.5 23.0246C16.539 22.882 16.5913 22.7425 16.6395 22.602C16.8049 22.0844 17.0819 21.6094 17.4512 21.2107C17.8204 20.812 18.2728 20.4994 18.7763 20.295C19.0204 20.1924 19.2779 20.1195 19.5292 20.0303C19.6055 20.0128 19.6736 19.97 19.7224 19.9088C19.7712 19.8476 19.7978 19.7716 19.7978 19.6933C19.7978 19.6151 19.7712 19.5391 19.7224 19.4779C19.6736 19.4167 19.6055 19.3738 19.5292 19.3563C19.3784 19.303 19.2215 19.2538 19.0748 19.2035C18.5979 19.0562 18.1562 18.8129 17.7769 18.4884C17.3976 18.164 17.0887 17.7653 16.8693 17.317C16.7226 16.987 16.5935 16.6494 16.4826 16.3056C16.4641 16.231 16.4213 16.1647 16.3609 16.1171C16.3006 16.0696 16.2261 16.0435 16.1492 16.043C16.0722 16.0421 15.9972 16.0673 15.9363 16.1144C15.8754 16.1615 15.8323 16.2278 15.8138 16.3025C15.7584 16.4646 15.7112 16.6277 15.6517 16.7908C15.5004 17.2677 15.2534 17.7087 14.9256 18.0867C14.5979 18.4647 14.1964 18.7718 13.7457 18.9891C13.4218 19.1314 13.0907 19.2568 12.7538 19.3646C12.6785 19.3824 12.6114 19.4251 12.5634 19.4858C12.5154 19.5465 12.4893 19.6216 12.4893 19.699C12.4893 19.7764 12.5154 19.8515 12.5634 19.9122C12.6114 19.9729 12.6785 20.0156 12.7538 20.0334C12.9159 20.0898 13.079 20.1421 13.2421 20.1965C14.0612 20.4641 14.7635 21.0052 15.2311 21.729C15.4749 22.1297 15.6601 22.5632 15.7809 23.0164" fill="#F5F9FF"/>
</svg>
