<svg id="b05ad444-6b57-4b08-83e9-676422772a71" data-name="레이어 1" xmlns="http://www.w3.org/2000/svg" xmlns:xlink="http://www.w3.org/1999/xlink" viewBox="0 0 325.09 62.94">
  <defs>
    <style>
      .b85d8a00-ca68-4768-ae04-54820fec7e8c {
        fill: #fff;
      }

      .f9178c32-a026-4d19-b3af-29f0c74cccef {
        fill: url(#b6769e27-44b9-4283-a58b-3878c947878d);
      }

      .ee7683ad-e532-4961-9974-449c9b5b7a02 {
        mask: url(#bfdfbcac-48ed-4971-a1af-88737ebcf586);
      }

      .e72b9bac-47c8-4722-99e5-dfc10039e948 {
        fill: #0c59d8;
      }

      .f1f0b121-9e0c-4f41-afe4-0b3b8b2c723f {
        fill: url(#efc46ac7-8e2d-49ad-be77-af590073bb9d);
      }

      .a3394521-b05c-4d65-bd0b-f7fca16f52ec {
        fill: #635954;
      }

      .b9487f30-a76a-4c48-bf56-d334c0ee8325 {
        fill: #f0e1da;
      }

      .f51915d6-7d9b-40cc-8c62-b53dc7e8eb78 {
        fill: url(#f1e1cf97-0c1e-44a2-b24d-7e681be3f367);
      }

      .a70769b6-0306-46cd-95cd-858ceb292db4 {
        fill: #846352;
      }
    </style>
    <linearGradient id="b6769e27-44b9-4283-a58b-3878c947878d" data-name="무제 그라디언트 405" x1="245.05" y1="24.41" x2="266.99" y2="32.48" gradientUnits="userSpaceOnUse">
      <stop offset="0" stop-color="#3c3734"/>
      <stop offset="0.39" stop-color="#635954"/>
    </linearGradient>
    <mask id="bfdfbcac-48ed-4971-a1af-88737ebcf586" x="0" y="0" width="282.99" height="62.94" maskUnits="userSpaceOnUse">
      <g transform="translate(-0.03 -0.03)">
        <g id="ea4fbd4e-aad1-4983-bb7a-2b5d3281459e" data-name="mask0 5717 14963">
          <path class="b85d8a00-ca68-4768-ae04-54820fec7e8c" d="M283,0H0V63H283Z"/>
        </g>
      </g>
    </mask>
    <linearGradient id="efc46ac7-8e2d-49ad-be77-af590073bb9d" data-name="무제 그라디언트 468" x1="318.3" y1="25.31" x2="343.89" y2="11.66" gradientUnits="userSpaceOnUse">
      <stop offset="0" stop-color="#635954"/>
      <stop offset="1" stop-color="#3c3734"/>
    </linearGradient>
    <linearGradient id="f1e1cf97-0c1e-44a2-b24d-7e681be3f367" data-name="무제 그라디언트 432" x1="280.6" y1="28.44" x2="295.48" y2="33.21" gradientUnits="userSpaceOnUse">
      <stop offset="0.02" stop-color="#3c3734"/>
      <stop offset="0.13" stop-color="#47413d"/>
      <stop offset="0.37" stop-color="#574e4a"/>
      <stop offset="0.63" stop-color="#605652"/>
      <stop offset="1" stop-color="#635954"/>
    </linearGradient>
  </defs>
  <g>
    <path class="f9178c32-a026-4d19-b3af-29f0c74cccef" d="M269.32,14.82H245.93s0,0,0,0v7s0,0,0,0h9.53a0,0,0,0,1,0,0V44a4.36,4.36,0,0,0,4.36,4.35h0A4.35,4.35,0,0,0,264.21,44V22a0,0,0,0,1,0,0h5.31a3.59,3.59,0,0,0,3.58-3.75A3.74,3.74,0,0,0,269.32,14.82Z" transform="translate(-0.03 -0.03)"/>
    <g class="ee7683ad-e532-4961-9974-449c9b5b7a02">
      <g>
        <path class="e72b9bac-47c8-4722-99e5-dfc10039e948" d="M51.44,0H36.82a10.15,10.15,0,0,0-8.21,3.83A30.68,30.68,0,0,0,25.05,9.6a33.52,33.52,0,0,1-2.44,4.21c-2.82,4-5.63,4.56-6.09,4.63h-5a7.48,7.48,0,0,1-7.59-6.92,7.33,7.33,0,0,1,7.37-7.66h7.83A1.92,1.92,0,0,0,21.05,2,1.92,1.92,0,0,0,19.12,0H11.57A11.36,11.36,0,0,0,0,10.72,11.2,11.2,0,0,0,11.29,22.27h5.49a10.46,10.46,0,0,0,4.82-2,14.62,14.62,0,0,0,2.14-1.82,18.48,18.48,0,0,0,2-2.43,40.2,40.2,0,0,0,2.71-4.65c2.43-4.65,4.13-7.49,8.33-7.49H51.49a7.49,7.49,0,0,1,7.59,6.92,7.34,7.34,0,0,1-7.37,7.66H45.17a7.58,7.58,0,0,0-3.77.95,7.2,7.2,0,0,0-2.73,2.87,9.59,9.59,0,0,0-1.14,4.11V53.3a6,6,0,0,1-12,0V38.89a2,2,0,0,0-3.92,0V53.3a9.9,9.9,0,0,0,19.8,0V26.51c0-.44.25-4.21,3.83-4.24h6.48A11.2,11.2,0,0,0,63,10.72,11.39,11.39,0,0,0,51.43,0Z" transform="translate(-0.03 -0.03)"/>
        <path class="e72b9bac-47c8-4722-99e5-dfc10039e948" d="M23.09,33.64a.66.66,0,0,0,.41.49h.23a.61.61,0,0,0,.41-.47c.05-.2.13-.41.2-.62a5.43,5.43,0,0,1,3.12-3.37c.36-.15.73-.26,1.1-.38a.51.51,0,0,0,0-1l-.66-.22a5.35,5.35,0,0,1-3.22-2.76,14.38,14.38,0,0,1-.56-1.47.5.5,0,0,0-1,0l-.23.71a5.4,5.4,0,0,1-2.79,3.21c-.45.23-1,.36-1.44.55a.51.51,0,0,0-.39.48.51.51,0,0,0,.39.49l.71.24a5.43,5.43,0,0,1,2.9,2.24,6.66,6.66,0,0,1,.8,1.88Z" transform="translate(-0.03 -0.03)"/>
        <path class="e72b9bac-47c8-4722-99e5-dfc10039e948" d="M96.84,16.18H75a2.85,2.85,0,1,0,0,5.7H82.9v22a3,3,0,0,0,6,0V21.88h7.94a2.85,2.85,0,1,0,0-5.7Z" transform="translate(-0.03 -0.03)"/>
        <path class="e72b9bac-47c8-4722-99e5-dfc10039e948" d="M104.65,16.18a2.93,2.93,0,0,0-3,2.85V43.84a3,3,0,0,0,6,0V19a2.93,2.93,0,0,0-3-2.85Z" transform="translate(-0.03 -0.03)"/>
        <path class="e72b9bac-47c8-4722-99e5-dfc10039e948" d="M127.06,21.47a10.76,10.76,0,0,1,7.31,2.8,3.11,3.11,0,0,0,4.24-.08,2.75,2.75,0,0,0-.09-4,16.94,16.94,0,0,0-11.47-4.39c-9.12,0-16.54,7.06-16.54,15.73s7.42,15.74,16.54,15.74A17,17,0,0,0,138.37,43a2.84,2.84,0,0,0-2.05-4.93,3,3,0,0,0-2,.77,10.77,10.77,0,0,1-7.21,2.71,10.31,10.31,0,0,1-10.55-10A10.31,10.31,0,0,1,127.06,21.47Z" transform="translate(-0.03 -0.03)"/>
        <path class="e72b9bac-47c8-4722-99e5-dfc10039e948" d="M156.13,29.62l8.73-8.6a2.75,2.75,0,0,0-.08-4,3.11,3.11,0,0,0-4.24.07L147.3,30.12V19a3,3,0,0,0-6,0V43.85a3,3,0,0,0,6,0v-5.5L152,33.77l10.26,11.89a3.09,3.09,0,0,0,4.22.4,2.75,2.75,0,0,0,.42-4l-10.7-12.41Z" transform="translate(-0.03 -0.03)"/>
        <path class="e72b9bac-47c8-4722-99e5-dfc10039e948" d="M188.07,41H175.64V19a3,3,0,0,0-6,0V43.84a2.93,2.93,0,0,0,3,2.85h15.43a2.85,2.85,0,1,0,0-5.7Z" transform="translate(-0.03 -0.03)"/>
        <path class="e72b9bac-47c8-4722-99e5-dfc10039e948" d="M212.81,41H198.42v-6.7h11.84a2.85,2.85,0,1,0,0-5.7H198.42V21.9h14.39a2.85,2.85,0,1,0,0-5.7H195.43a2.92,2.92,0,0,0-3,2.85v24.8a2.93,2.93,0,0,0,3,2.85h17.38a2.85,2.85,0,1,0,0-5.7Z" transform="translate(-0.03 -0.03)"/>
      </g>
    </g>
    <path class="f1f0b121-9e0c-4f41-afe4-0b3b8b2c723f" d="M320.62,14.37a4.49,4.49,0,0,0-4,2.52l-5.82,12h-.27l-.12-.25-.86-1.76-3.22-6.6-1.63-3.35a4.49,4.49,0,0,0-4-2.52h0A4.5,4.5,0,0,0,296.67,21l8.82,16.38a4.45,4.45,0,0,1,.54,2.14v5.69a4.51,4.51,0,0,0,4.5,4.5h.21a4.5,4.5,0,0,0,4.49-4.5V39.53a4.56,4.56,0,0,1,.54-2.14L324.58,21a4.5,4.5,0,0,0-3.95-6.64Z" transform="translate(-0.03 -0.03)"/>
    <path class="a3394521-b05c-4d65-bd0b-f7fca16f52ec" d="M245.9,21.91h1.83a3.53,3.53,0,0,0,3.54-3.53v0a3.53,3.53,0,0,0-3.54-3.53H237.67a16.85,16.85,0,0,0-6.81,1.3,11.07,11.07,0,0,0-4.66,3.65,9.07,9.07,0,0,0-1.68,5.41,7.83,7.83,0,0,0,2.4,6,14,14,0,0,0,6.91,3.21l3.31.75a17,17,0,0,1,2.92.85,4.12,4.12,0,0,1,1.61,1.06,2.06,2.06,0,0,1,.5,1.4,2.36,2.36,0,0,1-.53,1.52A3.6,3.6,0,0,1,240.09,41a7.22,7.22,0,0,1-2.48.38,7.62,7.62,0,0,1-3-.53,4.39,4.39,0,0,1-1.95-1.59c-.09-.14-.29-.4-.38-.54a4.08,4.08,0,0,0-3.55-2A4.13,4.13,0,0,0,225.22,43l.21.33a10.22,10.22,0,0,0,4.86,3.92,19.56,19.56,0,0,0,7.44,1.29,19.17,19.17,0,0,0,7.11-1.19,10.05,10.05,0,0,0,4.56-3.43,9.13,9.13,0,0,0,1.6-5.43,8.89,8.89,0,0,0-2.51-6.38q-2.46-2.52-7.7-3.64L238,27.89a11.19,11.19,0,0,1-3.47-1.31,2.22,2.22,0,0,1-1-2,2.19,2.19,0,0,1,.47-1.37,3,3,0,0,1,1.38-.94,6,6,0,0,1,1.9-.36h8.62Z" transform="translate(-0.03 -0.03)"/>
    <path class="b9487f30-a76a-4c48-bf56-d334c0ee8325" d="M289.17-15.86" transform="translate(-0.03 -0.03)"/>
    <path class="a3394521-b05c-4d65-bd0b-f7fca16f52ec" d="M281.73,14.78a4.77,4.77,0,0,0-4.52,3.16l-8.7,25.36A4.64,4.64,0,0,0,273,49.37h0a4.76,4.76,0,0,0,4.56-3.27l6.93-22,2.78-9.3Z" transform="translate(-0.03 -0.03)"/>
    <path class="f51915d6-7d9b-40cc-8c62-b53dc7e8eb78" d="M300.83,43.3l-8.7-25.36a4.77,4.77,0,0,0-4.52-3.16h-.3l-2.78,9.3h.3l6.92,22a4.75,4.75,0,0,0,4.56,3.27A4.64,4.64,0,0,0,300.83,43.3Z" transform="translate(-0.03 -0.03)"/>
    <path class="a70769b6-0306-46cd-95cd-858ceb292db4" d="M288,43.09" transform="translate(-0.03 -0.03)"/>
  </g>
</svg>
