<svg width="32" height="32" viewBox="0 0 32 32" fill="none" xmlns="http://www.w3.org/2000/svg">
<path d="M27.5199 8.32031C25.6639 8.32031 24.6271 10.1635 25.0495 11.5331L20.5055 16.0899C20.1215 15.9747 19.5583 15.9747 19.1743 16.0899L15.9103 12.8259C16.3455 11.4563 15.3087 9.60031 13.4399 9.60031C11.5839 9.60031 10.5343 11.4435 10.9695 12.8259L5.13272 18.6499C3.76312 18.2275 1.91992 19.2643 1.91992 21.1203C1.91992 22.5283 3.07192 23.6803 4.47992 23.6803C6.33592 23.6803 7.37272 21.8371 6.95032 20.4675L12.7743 14.6307C13.1583 14.7459 13.7215 14.7459 14.1055 14.6307L17.3695 17.8947C16.9343 19.2643 17.9711 21.1203 19.8399 21.1203C21.6959 21.1203 22.7455 19.2771 22.3103 17.8947L26.8671 13.3507C28.2367 13.7731 30.0799 12.7363 30.0799 10.8803C30.0799 9.47231 28.9279 8.32031 27.5199 8.32031Z" fill="#0C59D8"/>
</svg>
