<svg width="31" height="28" viewBox="0 0 31 28" fill="none" xmlns="http://www.w3.org/2000/svg">
<path d="M28 4.66667H22.1667V3.5C22.1667 2.57174 21.7979 1.6815 21.1415 1.02513C20.4852 0.368749 19.5949 0 18.6667 0H11.6667C10.7384 0 9.84817 0.368749 9.19179 1.02513C8.53542 1.6815 8.16667 2.57174 8.16667 3.5V4.66667H2.33333C1.71449 4.66667 1.121 4.9125 0.683417 5.35008C0.245833 5.78767 0 6.38116 0 7V25.6667C0 26.2855 0.245833 26.879 0.683417 27.3166C1.121 27.7542 1.71449 28 2.33333 28H28C28.6188 28 29.2123 27.7542 29.6499 27.3166C30.0875 26.879 30.3333 26.2855 30.3333 25.6667V7C30.3333 6.38116 30.0875 5.78767 29.6499 5.35008C29.2123 4.9125 28.6188 4.66667 28 4.66667ZM10.5 3.5C10.5 3.19058 10.6229 2.89383 10.8417 2.67504C11.0605 2.45625 11.3572 2.33333 11.6667 2.33333H18.6667C18.9761 2.33333 19.2728 2.45625 19.4916 2.67504C19.7104 2.89383 19.8333 3.19058 19.8333 3.5V4.66667H10.5V3.5ZM28 7V13.0681C24.0622 15.2115 19.6501 16.3341 15.1667 16.3333C10.6835 16.3341 6.27145 15.2121 2.33333 13.0696V7H28ZM28 25.6667H2.33333V15.6975C6.32906 17.652 10.7186 18.6675 15.1667 18.6667C19.6149 18.6668 24.0043 17.6507 28 15.696V25.6667ZM11.6667 12.8333C11.6667 12.5239 11.7896 12.2272 12.0084 12.0084C12.2272 11.7896 12.5239 11.6667 12.8333 11.6667H17.5C17.8094 11.6667 18.1062 11.7896 18.325 12.0084C18.5438 12.2272 18.6667 12.5239 18.6667 12.8333C18.6667 13.1428 18.5438 13.4395 18.325 13.6583C18.1062 13.8771 17.8094 14 17.5 14H12.8333C12.5239 14 12.2272 13.8771 12.0084 13.6583C11.7896 13.4395 11.6667 13.1428 11.6667 12.8333Z" fill="#0C59D8"/>
</svg>
