<svg width="32" height="32" viewBox="0 0 32 32" fill="none" xmlns="http://www.w3.org/2000/svg">
<g clip-path="url(#clip0_1097_51512)">
<path d="M15.9997 0.640625C12.9617 0.640625 9.99203 1.54147 7.46609 3.22925C4.94016 4.91703 2.97143 7.31593 1.80887 10.1226C0.646304 12.9293 0.342124 16.0177 0.934793 18.9972C1.52746 21.9768 2.99036 24.7136 5.13849 26.8618C7.28663 29.0099 10.0235 30.4728 13.0031 31.0655C15.9826 31.6581 19.071 31.354 21.8777 30.1914C24.6843 29.0288 27.0832 27.0601 28.771 24.5342C30.4588 22.0082 31.3596 19.0385 31.3596 16.0006C31.3553 11.9282 29.7357 8.02384 26.8561 5.14421C23.9764 2.26459 20.0721 0.644926 15.9997 0.640625ZM15.9997 28.9975C13.4291 28.9975 10.9163 28.2353 8.77895 26.8072C6.64162 25.379 4.97577 23.3492 3.99206 20.9743C3.00836 18.5995 2.75097 15.9862 3.25246 13.465C3.75395 10.9439 4.99179 8.62806 6.80944 6.81041C8.62709 4.99276 10.9429 3.75492 13.4641 3.25343C15.9852 2.75194 18.5985 3.00933 20.9734 3.99303C23.3482 4.97674 25.3781 6.64259 26.8062 8.77992C28.2343 10.9173 28.9966 13.4301 28.9966 16.0006C28.9927 19.4464 27.6221 22.75 25.1855 25.1865C22.749 27.6231 19.4454 28.9936 15.9997 28.9975ZM18.3627 23.0899C18.3627 23.4032 18.2382 23.7037 18.0167 23.9253C17.7951 24.1469 17.4946 24.2714 17.1812 24.2714C16.5545 24.2714 15.9534 24.0224 15.5102 23.5793C15.0671 23.1361 14.8181 22.535 14.8181 21.9083V16.0006C14.5048 16.0006 14.2042 15.8761 13.9826 15.6546C13.7611 15.433 13.6366 15.1324 13.6366 14.8191C13.6366 14.5057 13.7611 14.2052 13.9826 13.9836C14.2042 13.762 14.5048 13.6375 14.8181 13.6375C15.4448 13.6375 16.0459 13.8865 16.4891 14.3297C16.9322 14.7728 17.1812 15.3739 17.1812 16.0006V21.9083C17.4946 21.9083 17.7951 22.0328 18.0167 22.2544C18.2382 22.476 18.3627 22.7765 18.3627 23.0899ZM13.6366 9.50216C13.6366 9.15163 13.7405 8.80898 13.9353 8.51752C14.13 8.22607 14.4068 7.9989 14.7306 7.86476C15.0545 7.73062 15.4108 7.69552 15.7546 7.76391C16.0984 7.83229 16.4142 8.00109 16.6621 8.24895C16.91 8.49681 17.0788 8.81261 17.1471 9.1564C17.2155 9.5002 17.1804 9.85655 17.0463 10.1804C16.9121 10.5042 16.685 10.781 16.3935 10.9758C16.1021 11.1705 15.7594 11.2745 15.4089 11.2745C14.9388 11.2745 14.488 11.0877 14.1557 10.7554C13.8233 10.423 13.6366 9.97221 13.6366 9.50216Z" fill="#0C59D8"/>
</g>
<defs>
<clipPath id="clip0_1097_51512">
<rect width="32" height="32" rx="5.12" fill="white"/>
</clipPath>
</defs>
</svg>
