<svg width="32" height="32" viewBox="0 0 32 32" fill="none" xmlns="http://www.w3.org/2000/svg">
<path d="M11.3636 0.375H2.84091C2.08745 0.375 1.36486 0.674309 0.832083 1.20708C0.299309 1.73986 0 2.46245 0 3.21591V11.7386C0 12.4921 0.299309 13.2147 0.832083 13.7475C1.36486 14.2802 2.08745 14.5795 2.84091 14.5795H11.3636C12.1171 14.5795 12.8397 14.2802 13.3725 13.7475C13.9052 13.2147 14.2045 12.4921 14.2045 11.7386V3.21591C14.2045 2.46245 13.9052 1.73986 13.3725 1.20708C12.8397 0.674309 12.1171 0.375 11.3636 0.375ZM11.3636 11.7386H2.84091V3.21591H11.3636V11.7386ZM28.4091 0.375H19.8864C19.1329 0.375 18.4103 0.674309 17.8775 1.20708C17.3448 1.73986 17.0455 2.46245 17.0455 3.21591V11.7386C17.0455 12.4921 17.3448 13.2147 17.8775 13.7475C18.4103 14.2802 19.1329 14.5795 19.8864 14.5795H28.4091C29.1625 14.5795 29.8851 14.2802 30.4179 13.7475C30.9507 13.2147 31.25 12.4921 31.25 11.7386V3.21591C31.25 2.46245 30.9507 1.73986 30.4179 1.20708C29.8851 0.674309 29.1625 0.375 28.4091 0.375ZM28.4091 11.7386H19.8864V3.21591H28.4091V11.7386ZM11.3636 17.4205H2.84091C2.08745 17.4205 1.36486 17.7198 0.832083 18.2525C0.299309 18.7853 0 19.5079 0 20.2614V28.7841C0 29.5375 0.299309 30.2601 0.832083 30.7929C1.36486 31.3257 2.08745 31.625 2.84091 31.625H11.3636C12.1171 31.625 12.8397 31.3257 13.3725 30.7929C13.9052 30.2601 14.2045 29.5375 14.2045 28.7841V20.2614C14.2045 19.5079 13.9052 18.7853 13.3725 18.2525C12.8397 17.7198 12.1171 17.4205 11.3636 17.4205ZM11.3636 28.7841H2.84091V20.2614H11.3636V28.7841ZM28.4091 17.4205H19.8864C19.1329 17.4205 18.4103 17.7198 17.8775 18.2525C17.3448 18.7853 17.0455 19.5079 17.0455 20.2614V28.7841C17.0455 29.5375 17.3448 30.2601 17.8775 30.7929C18.4103 31.3257 19.1329 31.625 19.8864 31.625H28.4091C29.1625 31.625 29.8851 31.3257 30.4179 30.7929C30.9507 30.2601 31.25 29.5375 31.25 28.7841V20.2614C31.25 19.5079 30.9507 18.7853 30.4179 18.2525C29.8851 17.7198 29.1625 17.4205 28.4091 17.4205ZM28.4091 28.7841H19.8864V20.2614H28.4091V28.7841Z" fill="#0C59D8"/>
</svg>
