<svg width="35" height="32" viewBox="0 0 35 32" fill="none" xmlns="http://www.w3.org/2000/svg">
<path d="M33.7967 6.92227C33.7158 6.73777 33.5876 6.57413 33.4232 6.44538C33.2587 6.31663 33.0629 6.22662 32.8524 6.18306C32.642 6.1395 32.4233 6.1437 32.215 6.19528C32.0067 6.24687 31.8151 6.34432 31.6566 6.47926L24.9397 12.1999L22.068 11.6308L21.4513 8.98041L27.6498 2.78135C27.796 2.63506 27.9016 2.45821 27.9575 2.26599C28.0134 2.07376 28.0179 1.87189 27.9707 1.67769C27.9235 1.48349 27.826 1.30275 27.6865 1.15097C27.547 0.999199 27.3697 0.880915 27.1698 0.806268C25.3479 0.126115 23.373 -0.130692 21.4185 0.05841C19.4639 0.247513 17.5896 0.876737 15.9602 1.8908C14.3309 2.90486 12.9963 4.27272 12.0737 5.87419C11.1512 7.47567 10.6689 9.26174 10.6693 11.0755C10.6671 12.6071 11.0076 14.1226 11.6693 15.5271L1.63399 23.5351C1.60899 23.5536 1.58566 23.5751 1.56232 23.5951C0.561985 24.5183 0 25.7705 0 27.0761C0 27.7226 0.137971 28.3628 0.406035 28.96C0.674099 29.5573 1.06701 30.1 1.56232 30.5571C2.05764 31.0143 2.64567 31.3769 3.29283 31.6243C3.94 31.8717 4.63362 31.999 5.33411 31.999C6.7488 31.999 8.10555 31.4804 9.10589 30.5571C9.12756 30.5372 9.15089 30.5141 9.17089 30.4925L17.8462 21.2278C19.6736 21.9681 21.6723 22.2762 23.6612 22.124C25.6501 21.9718 27.5665 21.3642 29.2369 20.3562C30.9073 19.3482 32.2789 17.9717 33.2276 16.3512C34.1762 14.7307 34.672 12.9174 34.67 11.0755C34.6726 9.65198 34.376 8.24153 33.7967 6.92227ZM22.6696 19.6896C21.0914 19.6876 19.5393 19.3172 18.1578 18.6128C17.8902 18.4763 17.5799 18.4289 17.2789 18.4785C16.9778 18.5281 16.7044 18.6716 16.5045 18.8851L7.1875 28.8436C6.68332 29.2856 6.01196 29.5285 5.31658 29.5202C4.62119 29.512 3.95679 29.2534 3.46504 28.7996C2.97329 28.3457 2.69309 27.7326 2.68419 27.0908C2.67528 26.449 2.93838 25.8294 3.41738 25.3641L14.1994 16.7669C14.4311 16.5823 14.5869 16.3297 14.6406 16.0515C14.6943 15.7734 14.6427 15.4866 14.4944 15.2395C13.6444 13.8207 13.2455 12.2093 13.3436 10.5906C13.4416 8.97191 14.0326 7.41161 15.0487 6.08909C16.0647 4.76656 17.4645 3.73551 19.0871 3.11445C20.7098 2.4934 22.4894 2.30756 24.2214 2.57831L19.0212 7.77906C18.8765 7.92392 18.7716 8.09872 18.7154 8.28877C18.6591 8.47882 18.6531 8.67856 18.6979 8.8712L19.6412 12.9214C19.6952 13.153 19.8204 13.3653 20.002 13.5329C20.1835 13.7004 20.4136 13.816 20.6646 13.8658L25.0564 14.7365C25.2651 14.7778 25.4815 14.7722 25.6875 14.7203C25.8934 14.6684 26.0828 14.5716 26.2398 14.4381L31.8749 9.63878C32.0996 10.874 32.03 12.1395 31.671 13.3474C31.312 14.5553 30.6722 15.6765 29.7961 16.633C28.92 17.5896 27.8287 18.3585 26.598 18.8864C25.3673 19.4142 24.0268 19.6883 22.6696 19.6896Z" fill="#0C59D8"/>
</svg>
