<svg width="31" height="28" viewBox="0 0 31 28" fill="none" xmlns="http://www.w3.org/2000/svg">
<path d="M29.9287 25.3529H27.8647V10.9046C27.8647 10.3572 27.6472 9.83218 27.2601 9.44509C26.873 9.05801 26.348 8.84055 25.8006 8.84055H17.5444V2.6484C17.5447 2.27463 17.4434 1.90781 17.2515 1.58709C17.0595 1.26637 16.7841 1.00379 16.4546 0.827379C16.1251 0.650965 15.7538 0.567339 15.3805 0.585426C15.0072 0.603514 14.6457 0.722636 14.3348 0.930078L4.01458 7.80852C3.73147 7.99741 3.49945 8.25337 3.3392 8.55362C3.17895 8.85387 3.09543 9.18909 3.09607 9.52942V25.3529H1.03202C0.758315 25.3529 0.495815 25.4617 0.302273 25.6552C0.108731 25.8488 0 26.1113 0 26.385C0 26.6587 0.108731 26.9212 0.302273 27.1147C0.495815 27.3083 0.758315 27.417 1.03202 27.417H29.9287C30.2024 27.417 30.4649 27.3083 30.6585 27.1147C30.852 26.9212 30.9607 26.6587 30.9607 26.385C30.9607 26.1113 30.852 25.8488 30.6585 25.6552C30.4649 25.4617 30.2024 25.3529 29.9287 25.3529ZM25.8006 10.9046V25.3529H17.5444V10.9046H25.8006ZM5.16012 9.52942L15.4804 2.6484V25.3529H5.16012V9.52942ZM13.4163 12.9686V15.0327C13.4163 15.3064 13.3076 15.5689 13.114 15.7624C12.9205 15.956 12.658 16.0647 12.3843 16.0647C12.1106 16.0647 11.8481 15.956 11.6545 15.7624C11.461 15.5689 11.3523 15.3064 11.3523 15.0327V12.9686C11.3523 12.6949 11.461 12.4324 11.6545 12.2389C11.8481 12.0454 12.1106 11.9366 12.3843 11.9366C12.658 11.9366 12.9205 12.0454 13.114 12.2389C13.3076 12.4324 13.4163 12.6949 13.4163 12.9686ZM9.28822 12.9686V15.0327C9.28822 15.3064 9.17949 15.5689 8.98595 15.7624C8.79241 15.956 8.52991 16.0647 8.2562 16.0647C7.98249 16.0647 7.71999 15.956 7.52645 15.7624C7.3329 15.5689 7.22417 15.3064 7.22417 15.0327V12.9686C7.22417 12.6949 7.3329 12.4324 7.52645 12.2389C7.71999 12.0454 7.98249 11.9366 8.2562 11.9366C8.52991 11.9366 8.79241 12.0454 8.98595 12.2389C9.17949 12.4324 9.28822 12.6949 9.28822 12.9686ZM9.28822 20.1928V22.2569C9.28822 22.5306 9.17949 22.7931 8.98595 22.9866C8.79241 23.1802 8.52991 23.2889 8.2562 23.2889C7.98249 23.2889 7.71999 23.1802 7.52645 22.9866C7.3329 22.7931 7.22417 22.5306 7.22417 22.2569V20.1928C7.22417 19.9191 7.3329 19.6566 7.52645 19.4631C7.71999 19.2695 7.98249 19.1608 8.2562 19.1608C8.52991 19.1608 8.79241 19.2695 8.98595 19.4631C9.17949 19.6566 9.28822 19.9191 9.28822 20.1928ZM13.4163 20.1928V22.2569C13.4163 22.5306 13.3076 22.7931 13.114 22.9866C12.9205 23.1802 12.658 23.2889 12.3843 23.2889C12.1106 23.2889 11.8481 23.1802 11.6545 22.9866C11.461 22.7931 11.3523 22.5306 11.3523 22.2569V20.1928C11.3523 19.9191 11.461 19.6566 11.6545 19.4631C11.8481 19.2695 12.1106 19.1608 12.3843 19.1608C12.658 19.1608 12.9205 19.2695 13.114 19.4631C13.3076 19.6566 13.4163 19.9191 13.4163 20.1928Z" fill="#0C59D8"/>
</svg>
