<svg width="51" height="32" viewBox="0 0 51 32" fill="none" xmlns="http://www.w3.org/2000/svg">
<path d="M22.9964 21.9716C25.1389 20.5453 26.7656 18.4673 27.6358 16.0449C28.506 13.6226 28.5735 10.9845 27.8284 8.52078C27.0833 6.05708 25.5652 3.89856 23.4984 2.36441C21.4317 0.83027 18.9261 0.00195313 16.3522 0.00195312C13.7783 0.00195313 11.2727 0.83027 9.20601 2.36441C7.13927 3.89856 5.62111 6.05708 4.87603 8.52078C4.13094 10.9845 4.19848 13.6226 5.06867 16.0449C5.93886 18.4673 7.56549 20.5453 9.70802 21.9716C5.83239 23.4001 2.52251 26.0433 0.272268 29.507C0.154002 29.6828 0.0718553 29.8804 0.0306012 30.0882C-0.0106529 30.296 -0.010191 30.5099 0.03196 30.7175C0.074111 30.9251 0.15711 31.1223 0.276133 31.2976C0.395157 31.4728 0.547829 31.6227 0.725277 31.7384C0.902725 31.8541 1.10141 31.9335 1.30978 31.9717C1.51815 32.01 1.73205 32.0065 1.93904 31.9614C2.14604 31.9163 2.342 31.8304 2.51554 31.7089C2.68909 31.5874 2.83674 31.4326 2.94993 31.2535C4.40144 29.021 6.38764 27.1865 8.72815 25.9165C11.0687 24.6466 13.6894 23.9814 16.3522 23.9814C19.0151 23.9814 21.6358 24.6466 23.9763 25.9165C26.3168 27.1865 28.303 29.021 29.7545 31.2535C29.989 31.602 30.3512 31.8442 30.7628 31.9278C31.1744 32.0113 31.6024 31.9295 31.9542 31.7001C32.306 31.4706 32.5533 31.1119 32.6428 30.7016C32.7322 30.2912 32.6566 29.8621 32.4322 29.507C30.1819 26.0433 26.872 23.4001 22.9964 21.9716ZM7.5599 11.9963C7.5599 10.2574 8.07556 8.55748 9.04167 7.11159C10.0078 5.6657 11.381 4.53877 12.9875 3.8733C14.5941 3.20783 16.362 3.03371 18.0675 3.37297C19.7731 3.71222 21.3397 4.54961 22.5693 5.77923C23.799 7.00886 24.6363 8.5755 24.9756 10.281C25.3148 11.9866 25.1407 13.7544 24.4753 15.361C23.8098 16.9676 22.6829 18.3408 21.237 19.3069C19.7911 20.273 18.0912 20.7887 16.3522 20.7887C14.0212 20.786 11.7863 19.8588 10.138 18.2105C8.48973 16.5622 7.56255 14.3274 7.5599 11.9963ZM49.5512 31.7191C49.1961 31.9507 48.7636 32.0317 48.3488 31.9444C47.9339 31.8571 47.5708 31.6086 47.3391 31.2535C45.8894 29.0197 43.9034 27.1844 41.5624 25.9149C39.2214 24.6455 36.5999 23.9823 33.9369 23.9859C33.5129 23.9859 33.1063 23.8174 32.8065 23.5177C32.5067 23.2179 32.3383 22.8112 32.3383 22.3873C32.3383 21.9633 32.5067 21.5567 32.8065 21.2569C33.1063 20.9571 33.5129 20.7887 33.9369 20.7887C35.2317 20.7874 36.5102 20.5003 37.6812 19.9476C38.8521 19.395 39.8866 18.5906 40.7106 17.5918C41.5346 16.593 42.1279 15.4246 42.448 14.17C42.7681 12.9154 42.8071 11.6055 42.5623 10.3341C42.3175 9.06263 41.7949 7.86094 41.0319 6.81486C40.2688 5.76879 39.2841 4.90416 38.1482 4.28275C37.0122 3.66134 35.7531 3.2985 34.4606 3.22014C33.1682 3.14179 31.8744 3.34985 30.6717 3.82948C30.4756 3.91425 30.2645 3.95886 30.0509 3.96066C29.8373 3.96247 29.6254 3.92143 29.4279 3.83999C29.2304 3.75855 29.0513 3.63834 28.901 3.48648C28.7507 3.33461 28.6325 3.15418 28.5531 2.95582C28.4738 2.75747 28.435 2.54522 28.4391 2.33162C28.4431 2.11803 28.49 1.90742 28.5768 1.71223C28.6637 1.51705 28.7888 1.34125 28.9447 1.19523C29.1007 1.04921 29.2843 0.935923 29.4847 0.862071C32.2373 -0.235668 35.2988 -0.275171 38.0787 0.751181C40.8586 1.77753 43.16 3.79702 44.5388 6.42005C45.9176 9.04308 46.2762 12.0838 45.5453 14.9556C44.8145 17.8274 43.046 20.3268 40.5811 21.9716C44.4567 23.4001 47.7666 26.0433 50.0168 29.507C50.2484 29.8621 50.3294 30.2947 50.2421 30.7095C50.1548 31.1243 49.9063 31.4875 49.5512 31.7191Z" fill="#0C59D8"/>
</svg>
