<svg width="31" height="32" viewBox="0 0 31 32" fill="none" xmlns="http://www.w3.org/2000/svg">
<path d="M13.9201 2.65987V1.49986C13.9201 1.1922 14.0424 0.897148 14.2599 0.679603C14.4774 0.462059 14.7725 0.339844 15.0801 0.339844C15.3878 0.339844 15.6829 0.462059 15.9004 0.679603C16.1179 0.897148 16.2402 1.1922 16.2402 1.49986V2.65987C16.2402 2.96752 16.1179 3.26257 15.9004 3.48012C15.6829 3.69766 15.3878 3.81988 15.0801 3.81988C14.7725 3.81988 14.4774 3.69766 14.2599 3.48012C14.0424 3.26257 13.9201 2.96752 13.9201 2.65987ZM25.5203 7.29991C25.6726 7.30003 25.8235 7.27013 25.9644 7.21191C26.1052 7.15369 26.2332 7.0683 26.341 6.96061L27.501 5.8006C27.7186 5.58293 27.8409 5.28771 27.8409 4.97989C27.8409 4.67206 27.7186 4.37685 27.501 4.15918C27.2833 3.94152 26.9881 3.81923 26.6803 3.81923C26.3724 3.81923 26.0772 3.94152 25.8596 4.15918L24.6995 5.31919C24.5371 5.48143 24.4265 5.6882 24.3817 5.91334C24.3368 6.13848 24.3598 6.37187 24.4477 6.58394C24.5356 6.79602 24.6844 6.97726 24.8753 7.10471C25.0662 7.23216 25.2907 7.30009 25.5203 7.29991ZM3.81934 6.96061C3.92711 7.06839 4.05506 7.15388 4.19588 7.21221C4.3367 7.27054 4.48763 7.30056 4.64005 7.30056C4.79247 7.30056 4.94339 7.27054 5.08421 7.21221C5.22503 7.15388 5.35298 7.06839 5.46075 6.96061C5.56853 6.85283 5.65402 6.72488 5.71235 6.58407C5.77068 6.44325 5.8007 6.29232 5.8007 6.1399C5.8007 5.98748 5.77068 5.83655 5.71235 5.69574C5.65402 5.55492 5.56853 5.42697 5.46075 5.31919L4.30074 4.15918C4.08308 3.94152 3.78786 3.81923 3.48003 3.81923C3.17221 3.81923 2.87699 3.94152 2.65933 4.15918C2.44166 4.37685 2.31938 4.67206 2.31938 4.97989C2.31938 5.28771 2.44166 5.58293 2.65933 5.8006L3.81934 6.96061ZM16.4345 10.7959C16.2836 10.7692 16.1289 10.7727 15.9793 10.8061C15.8298 10.8396 15.6883 10.9023 15.5632 10.9907C15.438 11.0791 15.3316 11.1915 15.2501 11.3212C15.1686 11.451 15.1136 11.5956 15.0883 11.7468C15.0631 11.8979 15.068 12.0526 15.1028 12.2018C15.1376 12.351 15.2017 12.4919 15.2912 12.6162C15.3808 12.7406 15.4941 12.8459 15.6246 12.9262C15.7552 13.0065 15.9003 13.0601 16.0517 13.084C18.8023 13.5466 20.8802 16.0464 20.8802 18.9C20.8802 19.2077 21.0024 19.5027 21.22 19.7203C21.4375 19.9378 21.7326 20.06 22.0402 20.06C22.3479 20.06 22.6429 19.9378 22.8605 19.7203C23.078 19.5027 23.2002 19.2077 23.2002 18.9C23.2002 14.927 20.2901 11.4426 16.4316 10.7959H16.4345ZM30.1603 25.8601V29.3401C30.1603 29.9554 29.9159 30.5455 29.4808 30.9806C29.0457 31.4157 28.4556 31.6602 27.8403 31.6602H2.32002C1.70471 31.6602 1.11461 31.4157 0.679519 30.9806C0.24443 30.5455 0 29.9554 0 29.3401V25.8601C0 25.2448 0.24443 24.6547 0.679519 24.2196C1.11461 23.7845 1.70471 23.5401 2.32002 23.5401V18.9C2.31997 17.2161 2.65322 15.5489 3.30054 13.9944C3.94786 12.4399 4.89646 11.0289 6.09166 9.84273C7.28686 8.65657 8.70501 7.7187 10.2644 7.08318C11.8237 6.44767 13.4935 6.12708 15.1773 6.1399C22.1591 6.1921 27.8403 11.982 27.8403 19.045V23.5401C28.4556 23.5401 29.0457 23.7845 29.4808 24.2196C29.9159 24.6547 30.1603 25.2448 30.1603 25.8601ZM4.64005 23.5401H25.5203V19.045C25.5203 13.245 20.873 8.50198 15.1599 8.45992H15.0801C12.3113 8.45992 9.65578 9.55986 7.69788 11.5178C5.73998 13.4757 4.64005 16.1311 4.64005 18.9V23.5401ZM27.8403 29.3401V25.8601H2.32002V29.3401H27.8403Z" fill="#0C59D8"/>
</svg>
