<?xml version="1.0" encoding="UTF-8"?>
<svg id="_레이어_2" data-name="레이어 2" xmlns="http://www.w3.org/2000/svg" xmlns:xlink="http://www.w3.org/1999/xlink" viewBox="0 0 325.09 62.94">
  <defs>
    <style>
      .cls-1 {
        mask: url(#mask);
      }

      .cls-2 {
        fill: #fff;
      }

      .cls-3 {
        fill: url(#_무제_그라디언트_468);
      }

      .cls-4 {
        fill: url(#_무제_그라디언트_432);
      }

      .cls-5 {
        fill: url(#_무제_그라디언트_405);
      }

      .cls-6 {
        fill: #fff;
      }
    </style>
    <linearGradient id="_무제_그라디언트_405" data-name="무제 그라디언트 405" x1="245.02" y1="24.37" x2="266.95" y2="32.44" gradientUnits="userSpaceOnUse">
      <stop offset="0" stop-color="#3c3734"/>
      <stop offset=".39" stop-color="#fff"/>
    </linearGradient>
    <mask id="mask" x="0" y="0" width="282.99" height="62.94" maskUnits="userSpaceOnUse">
      <g id="mask0_5717_14963" data-name="mask0 5717 14963">
        <path class="cls-2" d="M282.99,0H0v62.94h282.99V0Z"/>
      </g>
    </mask>
    <linearGradient id="_무제_그라디언트_468" data-name="무제 그라디언트 468" x1="318.27" y1="25.28" x2="343.86" y2="11.63" gradientUnits="userSpaceOnUse">
      <stop offset="0" stop-color="#fff"/>
      <stop offset="1" stop-color="#3c3734"/>
    </linearGradient>
    <linearGradient id="_무제_그라디언트_432" data-name="무제 그라디언트 432" x1="280.57" y1="28.41" x2="295.45" y2="33.17" gradientUnits="userSpaceOnUse">
      <stop offset=".02" stop-color="#3c3734"/>
      <stop offset=".13" stop-color="#47403d"/>
      <stop offset=".37" stop-color="#564e49"/>
      <stop offset=".63" stop-color="#605651"/>
      <stop offset="1" stop-color="#fff"/>
    </linearGradient>
  </defs>
  <g id="_레이어_1-2" data-name="레이어 1">
    <g>
      <path class="cls-5" d="M269.29,14.78h-8.67s-.05,0-.07,0h-14.64s-.03.02-.03.03v7.01s.02.03.03.03h4.02s0,0,0,0h3.26s2.24,0,2.24,0c.02,0,.03.02.03.03v22.04c0,2.41,1.95,4.36,4.36,4.36h0c2.41,0,4.36-1.95,4.36-4.36v-21.96s.02-.03.03-.03h5.31c2.03,0,3.67-1.69,3.58-3.75s-1.86-3.42-3.82-3.42Z"/>
      <g class="cls-1">
        <g>
          <path class="cls-6" d="M51.41,0h-14.62c-3.82,0-6.33,1.61-8.21,3.83-1.46,1.71-2.54,3.78-3.56,5.74-.79,1.53-1.55,2.96-2.44,4.21-2.82,3.97-5.64,4.56-6.1,4.63h-5.01c-3.97,0-7.39-3.01-7.59-6.93-.21-4.19,3.18-7.66,7.37-7.66h7.83c1.07,0,1.94-.86,1.94-1.91S20.15,0,19.08,0h-7.55C5.44,0,.24,4.67,0,10.69c-.24,6.32,4.9,11.55,11.25,11.55h5.49c.32-.03,2.33-.26,4.82-2.01.68-.48,1.41-1.07,2.14-1.82.68-.68,1.36-1.48,2.03-2.43,1.04-1.46,1.89-3.09,2.71-4.65,2.42-4.65,4.13-7.49,8.33-7.49h14.68c3.97,0,7.39,3.01,7.59,6.93.21,4.19-3.18,7.66-7.37,7.66h-6.54c-1.53.01-2.77.38-3.77.95-1.25.71-2.13,1.76-2.73,2.86-.77,1.43-1.09,2.98-1.14,4.11v26.92c0,3.23-2.72,5.85-6.03,5.85s-5.99-2.63-5.99-5.85v-14.41c0-1.07-.88-1.93-1.96-1.93s-1.96.86-1.96,1.93v14.41c0,5.33,4.44,9.67,9.9,9.67s9.88-4.33,9.9-9.64v-26.82c.01-.43.25-4.21,3.83-4.24h6.48c6.35,0,11.49-5.22,11.25-11.55-.23-6.01-5.43-10.69-11.53-10.69h0Z"/>
          <path class="cls-6" d="M23.06,33.61c.07.23.18.4.4.49h.24c.22-.08.34-.24.4-.47.06-.21.13-.41.2-.62.54-1.58,1.58-2.72,3.12-3.37.36-.15.73-.26,1.1-.38.26-.09.38-.26.39-.49,0-.24-.13-.4-.39-.5-.22-.08-.44-.15-.66-.22-1.45-.48-2.54-1.39-3.22-2.75-.24-.47-.38-.98-.56-1.48-.09-.25-.26-.38-.49-.38s-.4.13-.49.38c-.08.24-.15.47-.24.71-.49,1.44-1.41,2.53-2.78,3.21-.46.23-.96.37-1.45.55-.24.09-.38.26-.38.49s.14.4.38.49c.24.08.47.16.71.24,1.23.41,2.2,1.16,2.91,2.24.38.58.6,1.23.8,1.88h0Z"/>
          <path class="cls-6" d="M96.81,16.15h-21.88c-1.66,0-3,1.28-3,2.85s1.34,2.85,3,2.85h7.94v21.95c0,1.57,1.34,2.85,3,2.85s3-1.28,3-2.85v-21.95h7.94c1.66,0,3-1.28,3-2.85s-1.35-2.85-3-2.85Z"/>
          <path class="cls-6" d="M104.62,16.15c-1.66,0-3,1.28-3,2.85v24.81c0,1.57,1.35,2.85,3,2.85s3-1.28,3-2.85v-24.8c0-1.57-1.35-2.85-3-2.85h0Z"/>
          <path class="cls-6" d="M127.03,21.43c2.74,0,5.34,1,7.31,2.8,1.19,1.09,3.09,1.06,4.24-.08,1.15-1.14,1.12-2.94-.08-4.03-3.1-2.84-7.17-4.4-11.47-4.4-9.12,0-16.54,7.06-16.54,15.73s7.42,15.73,16.54,15.73c4.22,0,8.24-1.51,11.32-4.26,1.98-1.77.65-4.93-2.05-4.93-.74,0-1.47.26-2.05.77-1.96,1.75-4.52,2.71-7.21,2.71-5.82,0-10.55-4.5-10.55-10.03s4.73-10.03,10.55-10.03Z"/>
          <path class="cls-6" d="M156.1,29.59l8.72-8.61c1.15-1.14,1.12-2.94-.08-4.03-1.19-1.09-3.09-1.06-4.24.08l-13.24,13.06v-11.08c0-1.57-1.35-2.85-3-2.85s-3,1.28-3,2.85v24.81c0,1.57,1.35,2.85,3,2.85s3-1.28,3-2.85v-5.51l4.64-4.58,10.26,11.89c.59.69,1.45,1.05,2.32,1.05.67,0,1.34-.21,1.9-.65,1.28-1,1.46-2.79.42-4.01l-10.7-12.41h-.01Z"/>
          <path class="cls-6" d="M188.04,40.95h-12.44v-21.95c0-1.57-1.35-2.85-3-2.85s-3,1.28-3,2.85v24.81c0,1.57,1.35,2.85,3,2.85h15.43c1.66,0,3-1.28,3-2.85s-1.35-2.85-3-2.85h0Z"/>
          <path class="cls-6" d="M212.78,40.96h-14.39v-6.7h11.84c1.66,0,3-1.28,3-2.85s-1.35-2.85-3-2.85h-11.84v-6.7h14.39c1.66,0,3-1.28,3-2.85s-1.35-2.85-3-2.85h-17.39c-1.66,0-3,1.28-3,2.85v24.81c0,1.57,1.34,2.85,3,2.85h17.39c1.66,0,3-1.28,3-2.85s-1.35-2.85-3-2.85h0Z"/>
        </g>
      </g>
      <path class="cls-3" d="M320.58,14.33c-1.72,0-3.29.98-4.04,2.53l-5.82,11.95h-.27l-.12-.25-.86-1.75-3.22-6.6-1.63-3.35c-.75-1.55-2.32-2.53-4.04-2.53h0c-3.4,0-5.57,3.64-3.96,6.64l8.83,16.38c.35.66.54,1.39.54,2.14v5.69c0,2.49,2.01,4.5,4.49,4.5h.21c2.48,0,4.49-2.02,4.49-4.5v-5.69c0-.75.18-1.48.54-2.14l8.81-16.39c1.61-3-.56-6.64-3.96-6.64h0Z"/>
      <path class="cls-6" d="M245.86,21.88h0s1.84,0,1.84,0c1.95,0,3.53-1.58,3.53-3.53v-.02c0-1.95-1.58-3.53-3.53-3.53h-5.91s-.05,0-.07,0h-4.02s-.02,0-.04,0h-.02s0,0,0,0h0c-2.55,0-4.82.44-6.81,1.3-1.99.87-3.54,2.09-4.66,3.65-1.12,1.56-1.68,3.37-1.68,5.41,0,2.5.8,4.5,2.39,6,1.6,1.51,3.9,2.58,6.91,3.21l3.31.75c1.21.26,2.19.54,2.93.85.74.31,1.28.66,1.61,1.06.33.39.5.86.5,1.41,0,.58-.18,1.08-.53,1.52-.36.44-.87.79-1.55,1.04-.68.26-1.51.39-2.47.39-1.13,0-2.12-.18-2.95-.53-.83-.36-1.48-.89-1.95-1.59-.09-.14-.29-.4-.39-.54-.85-1.3-2.04-2.01-3.55-2.01-3.19,0-5.18,3.48-3.55,6.23.07.11.14.23.21.34,1.13,1.75,2.75,3.05,4.85,3.91,2.1.86,4.58,1.29,7.44,1.29s5.14-.4,7.11-1.19c1.97-.79,3.49-1.94,4.56-3.43,1.07-1.49,1.6-3.3,1.6-5.43-.03-2.59-.87-4.71-2.51-6.39-1.64-1.67-4.21-2.88-7.7-3.64l-2.74-.54c-1.59-.38-2.74-.82-3.47-1.32-.73-.5-1.07-1.16-1.04-2,0-.51.15-.97.47-1.37.31-.4.77-.71,1.38-.94.53-.2,1.14-.33,1.9-.35h.05s.35,0,.35,0h0s8.22,0,8.22,0Z"/>
      <path class="cls-6" d="M281.7,14.75c-2.05,0-3.88,1.27-4.52,3.16l-8.7,25.36c-1.02,2.99,1.27,6.07,4.52,6.07h0c2.1,0,3.95-1.33,4.56-3.27l6.94-22.03,2.78-9.29h-5.58Z"/>
      <path class="cls-4" d="M300.8,43.27l-8.7-25.36c-.65-1.89-2.47-3.16-4.52-3.16h-.3l-2.78,9.29h.3l6.92,22.02c.61,1.94,2.46,3.27,4.56,3.27,3.25,0,5.55-3.08,4.52-6.07Z"/>
    </g>
  </g>
</svg>